<?xml version="1.0" standalone="no"?>
<!DOCTYPE svg PUBLIC "-//W3C//DTD SVG 20010904//EN"
 "http://www.w3.org/TR/2001/REC-SVG-20010904/DTD/svg10.dtd">
<svg version="1.0" xmlns="http://www.w3.org/2000/svg"
 width="640.000000pt" height="640.000000pt" viewBox="0 0 640.000000 640.000000"
 preserveAspectRatio="xMidYMid meet">

<g transform="translate(0.000000,640.000000) scale(0.100000,-0.100000)"
fill="#000000" stroke="none">
<path d="M2605 6390 c-3 -5 -19 -10 -35 -10 -16 0 -39 -4 -52 -9 -13 -5 -57
-14 -98 -20 -66 -11 -156 -36 -185 -52 -5 -3 -44 -16 -85 -28 -86 -26 -99 -31
-160 -59 -25 -11 -58 -24 -73 -28 -25 -6 -57 -20 -147 -68 -14 -7 -50 -25 -81
-40 -31 -15 -66 -36 -77 -47 -12 -10 -27 -19 -34 -19 -8 0 -51 -25 -98 -55
-47 -30 -90 -55 -96 -55 -7 0 -14 -7 -17 -15 -4 -8 -25 -27 -49 -42 -83 -53
-211 -155 -288 -229 -14 -13 -31 -30 -39 -36 -77 -73 -227 -228 -276 -289 -60
-73 -155 -201 -155 -208 0 -5 -18 -28 -40 -52 -22 -24 -40 -50 -40 -57 0 -7
-22 -45 -49 -85 -28 -39 -53 -84 -56 -99 -4 -14 -15 -34 -26 -44 -10 -9 -19
-22 -19 -28 0 -6 -9 -22 -20 -36 -11 -14 -20 -32 -20 -40 0 -8 -19 -51 -41
-95 -23 -44 -50 -109 -60 -145 -11 -36 -28 -81 -38 -100 -10 -19 -22 -59 -25
-88 -7 -52 -10 -61 -34 -109 -7 -13 -12 -32 -12 -42 0 -11 -4 -23 -10 -26 -5
-3 -10 -17 -10 -31 0 -13 -5 -33 -12 -44 -7 -10 -9 -22 -6 -26 9 -8 346 14
423 28 54 10 146 48 215 88 33 20 45 32 53 53 3 9 11 17 17 17 6 0 11 -106 12
-302 3 -251 5 -303 17 -303 21 0 28 22 40 129 7 61 25 141 47 205 19 58 39
126 45 151 6 25 27 79 48 120 21 41 41 88 45 103 4 16 19 47 34 70 15 23 41
72 58 108 18 37 37 70 43 73 6 4 18 24 28 44 9 20 34 57 54 82 20 25 38 50 40
57 15 44 427 456 472 472 7 2 31 21 54 42 24 22 49 39 56 39 8 0 30 13 50 29
20 15 51 34 69 41 18 8 59 31 90 52 31 21 63 38 69 38 7 0 54 20 103 45 50 24
116 51 146 59 30 8 100 30 155 50 55 19 134 39 175 45 41 5 118 18 170 27 117
21 523 26 610 7 82 -18 156 -31 241 -43 42 -6 112 -25 155 -41 44 -17 95 -34
114 -39 62 -14 94 -27 152 -58 32 -17 74 -36 94 -42 19 -7 67 -32 107 -56 39
-24 77 -44 84 -44 7 0 27 -13 45 -29 18 -15 43 -31 54 -35 12 -4 32 -16 45
-27 13 -11 34 -29 46 -39 12 -11 40 -31 62 -45 22 -13 45 -34 51 -44 6 -11 25
-27 43 -36 18 -8 41 -29 51 -45 9 -17 30 -37 46 -45 16 -8 37 -29 47 -45 10
-17 32 -40 50 -50 18 -11 33 -25 33 -33 0 -7 21 -35 48 -63 45 -47 81 -96 154
-209 l33 -50 160 -6 c169 -7 275 -18 415 -44 47 -9 123 -22 170 -30 91 -16
121 -26 188 -58 23 -11 45 -17 48 -14 4 4 -7 35 -24 69 -17 35 -36 81 -42 103
-7 22 -19 51 -27 65 -8 14 -23 45 -34 70 -35 78 -44 95 -57 109 -7 7 -27 41
-44 75 -16 33 -42 77 -56 95 -14 19 -35 52 -47 72 -37 69 -137 201 -220 294
-19 22 -58 67 -86 100 -27 33 -54 64 -58 69 -9 8 -76 76 -89 88 -59 59 -128
118 -137 118 -6 0 -18 12 -25 26 -8 14 -29 32 -47 39 -18 8 -47 30 -64 49 -17
20 -35 36 -41 36 -5 0 -42 25 -83 55 -40 30 -79 55 -86 55 -8 0 -25 12 -38 26
-14 14 -56 41 -95 60 -39 20 -80 44 -92 55 -12 11 -38 24 -58 30 -20 6 -63 26
-94 45 -31 19 -81 42 -111 50 -30 9 -75 26 -100 39 -25 12 -68 28 -96 35 -27
6 -59 16 -70 20 -132 54 -199 71 -378 97 -20 3 -40 9 -43 14 -8 13 -1161 12
-1169 -1z m661 -226 c19 -9 34 -24 34 -33 0 -27 -9 -30 -40 -14 -17 8 -34 12
-40 8 -20 -13 -9 -36 23 -50 39 -16 52 -30 60 -65 14 -57 -19 -93 -85 -92 -45
1 -68 16 -68 44 0 17 4 19 23 13 58 -18 75 -17 87 5 13 23 -1 50 -26 50 -7 0
-29 15 -49 34 -33 31 -35 36 -23 61 6 14 23 33 37 40 32 18 27 18 67 -1z
m-323 -16 c2 -7 -4 -31 -13 -53 -44 -102 -50 -117 -50 -138 0 -13 -6 -32 -14
-42 -18 -26 -36 -11 -82 69 -20 34 -47 75 -60 93 -29 38 -29 43 -6 43 21 0 57
-35 66 -65 6 -19 61 -85 70 -85 2 0 7 24 11 53 12 94 61 172 78 125z m98 -15
c18 -48 42 -97 60 -123 9 -14 20 -40 24 -57 10 -48 -19 -43 -45 7 -19 36 -24
40 -60 40 -42 0 -50 -7 -59 -54 -4 -18 -14 -32 -24 -34 -23 -5 -22 20 3 91 11
31 20 63 20 71 0 9 8 31 17 51 20 43 49 46 64 8z m493 4 c50 -28 61 -53 20
-43 -112 26 -165 15 -184 -37 -9 -28 -7 -36 18 -72 28 -40 29 -40 93 -40 49 0
64 -3 64 -15 0 -21 -72 -34 -117 -20 -53 15 -108 82 -108 131 0 34 6 42 53 78
61 48 102 52 161 18z m140 -12 c64 -20 86 -40 86 -81 0 -25 -7 -38 -30 -54
l-30 -21 22 -38 c14 -25 19 -44 14 -57 -7 -17 -10 -16 -36 15 -16 19 -30 43
-32 54 -4 25 -30 42 -52 34 -11 -4 -16 -18 -16 -42 0 -25 -4 -35 -15 -35 -12
0 -15 8 -11 33 3 17 8 65 11 106 10 112 8 111 89 86z m-1002 -32 c10 -9 18
-22 18 -28 0 -7 17 -33 38 -58 39 -48 66 -104 53 -112 -5 -2 -24 11 -43 31
-35 34 -36 35 -77 22 -35 -11 -41 -17 -41 -40 0 -37 -10 -58 -27 -58 -12 0
-14 8 -9 33 3 17 11 66 16 107 17 118 32 140 72 103z m-145 -94 c20 -94 20
-122 -1 -154 -31 -48 -146 -25 -146 29 0 28 22 28 45 0 20 -25 26 -28 51 -19
39 14 42 57 13 148 -19 58 -20 70 -8 78 21 13 30 -2 46 -82z m1319 45 c-3 -25
-13 -77 -23 -116 -16 -67 -34 -91 -53 -72 -8 8 -2 36 42 192 17 60 43 58 34
-4z m179 -28 c11 -17 14 -35 10 -59 -8 -43 -46 -62 -104 -54 -41 5 -61 -6 -61
-34 0 -9 -6 -22 -14 -28 -23 -19 -24 4 -4 94 20 94 35 137 50 146 15 10 105
-38 123 -65z m130 -13 c48 -9 125 -52 125 -69 0 -16 -12 -16 -66 1 -18 6 -25
-3 -52 -64 -18 -39 -32 -77 -32 -85 0 -7 -7 -19 -15 -26 -23 -19 -30 14 -11
54 9 19 16 41 16 50 0 8 7 34 16 56 16 39 16 42 -2 55 -11 8 -27 15 -36 15
-10 0 -18 4 -18 8 0 15 14 23 29 17 9 -4 30 -9 46 -12z m-2265 -209 c18 -53
71 -134 88 -134 8 0 36 12 63 27 27 14 52 23 55 20 12 -12 -6 -37 -33 -48 -15
-6 -45 -20 -67 -31 l-38 -20 -29 34 c-15 18 -28 38 -29 44 0 6 -13 35 -30 65
-35 63 -37 79 -11 79 13 0 23 -11 31 -36z m-54 -29 c14 -25 30 -45 35 -45 5 0
9 -6 9 -14 0 -7 11 -33 23 -57 23 -43 25 -69 6 -69 -6 0 -16 15 -24 33 -8 17
-27 47 -42 65 l-28 33 4 -81 c4 -91 -5 -110 -41 -93 -143 65 -155 67 -110 20
31 -31 54 -97 35 -97 -12 0 -63 53 -63 66 0 5 -18 33 -40 63 -22 29 -40 57
-40 62 0 5 13 9 28 9 27 0 70 -19 155 -68 21 -12 40 -22 42 -22 3 0 5 54 5
120 0 70 4 120 10 120 5 0 21 -20 36 -45z m2975 -105 c43 -22 85 -78 69 -94
-14 -14 -39 1 -50 28 -15 40 -53 59 -107 53 -56 -6 -73 -25 -73 -83 0 -52 36
-91 91 -100 29 -5 39 -11 39 -25 0 -12 -7 -19 -20 -19 -25 0 -121 49 -124 64
-2 6 -9 28 -16 50 -16 50 2 111 39 131 38 21 106 18 152 -5z m-3261 -45 c0 -7
-14 -25 -32 -38 l-31 -25 22 -28 c68 -88 100 -139 92 -147 -15 -15 -45 1 -58
31 -7 15 -32 48 -56 73 l-43 46 -33 -29 c-32 -28 -51 -30 -51 -3 0 14 16 28
115 100 59 43 75 47 75 20z m3445 -90 c24 -23 35 -75 16 -75 -5 0 -16 11 -25
25 -18 27 -53 33 -62 10 -3 -8 4 -28 15 -44 27 -38 27 -79 -1 -108 -26 -27
-68 -30 -97 -5 -24 20 -52 72 -45 84 10 16 34 8 34 -12 0 -35 74 -56 87 -25 3
9 -2 35 -11 58 -20 54 -20 76 1 99 23 25 59 23 88 -7z m-3603 -107 c105 -120
115 -138 78 -138 -11 0 -26 12 -35 29 -8 17 -20 33 -26 36 -10 7 -99 -77 -99
-93 0 -4 14 -19 30 -34 29 -26 39 -48 21 -48 -18 0 -89 52 -100 74 -7 11 -27
31 -46 44 -21 13 -35 30 -35 42 0 30 34 25 63 -10 14 -16 30 -30 36 -30 6 0
28 18 51 41 39 39 39 41 25 69 -8 16 -19 32 -25 35 -15 9 -12 35 3 35 8 0 34
-24 59 -52z m3749 -29 c22 -16 29 -28 29 -55 0 -44 -16 -44 -34 1 -10 23 -22
35 -35 35 -31 0 -33 -14 -10 -65 27 -61 14 -100 -34 -108 -61 -9 -139 47 -123
88 9 25 24 17 52 -25 30 -44 39 -48 66 -23 24 21 23 45 -2 68 -39 35 -14 105
38 105 13 0 37 -9 53 -21z"/>
<path d="M3000 6071 c-16 -31 -12 -41 15 -41 25 0 31 13 19 44 -8 21 -21 20
-34 -3z"/>
<path d="M3632 6088 c-7 -7 -12 -27 -12 -45 0 -32 2 -33 39 -33 49 0 69 20 53
55 -7 14 -18 25 -26 25 -8 0 -20 2 -28 5 -7 3 -19 0 -26 -7z"/>
<path d="M2646 6024 c-9 -25 -7 -34 8 -34 19 0 28 14 20 34 -8 20 -20 20 -28
0z"/>
<path d="M3910 5989 c-9 -33 -9 -44 2 -50 37 -24 96 10 84 49 -6 17 -44 42
-66 42 -5 0 -14 -19 -20 -41z"/>
<path d="M3090 5483 c-279 -14 -346 -25 -533 -84 -32 -10 -75 -21 -95 -25 -20
-3 -73 -23 -117 -44 -44 -21 -104 -45 -132 -55 -29 -9 -55 -21 -58 -26 -4 -5
-36 -23 -72 -41 -36 -17 -78 -42 -93 -55 -16 -13 -44 -30 -63 -38 -20 -8 -38
-19 -42 -25 -3 -6 -39 -35 -80 -64 -78 -58 -108 -84 -155 -131 -17 -16 -35
-34 -41 -40 -6 -5 -27 -26 -45 -45 -19 -19 -41 -42 -51 -50 -46 -41 -163 -183
-163 -197 0 -5 -18 -29 -40 -53 -22 -24 -43 -55 -47 -69 -3 -14 -22 -46 -43
-73 -20 -26 -42 -64 -49 -84 -7 -20 -23 -51 -35 -68 -12 -18 -27 -52 -35 -77
-7 -24 -17 -52 -22 -61 -22 -44 -28 -56 -47 -103 -12 -27 -24 -70 -27 -95 -4
-25 -14 -65 -22 -90 -31 -91 -54 -188 -56 -240 l-2 -35 220 2 c241 2 315 11
540 63 44 11 116 24 160 29 76 9 118 20 245 62 30 9 90 24 133 33 42 9 90 22
105 30 15 7 61 21 102 31 91 21 140 37 203 65 26 11 84 30 130 42 45 11 87 24
92 28 17 11 118 48 153 55 18 4 75 24 126 44 51 21 117 44 147 51 48 11 98 29
206 76 17 8 40 14 52 14 21 0 41 7 186 62 28 11 79 25 115 32 36 8 95 25 131
38 36 14 97 31 135 38 38 6 98 21 134 32 89 28 127 36 265 59 66 10 143 23
170 29 68 13 169 27 298 41 59 7 107 16 107 20 0 5 -4 9 -8 9 -5 0 -27 28 -49
63 -23 35 -57 79 -77 97 -20 19 -36 39 -36 45 0 6 -20 27 -44 48 -25 20 -47
45 -50 55 -3 9 -21 26 -40 36 -18 10 -40 29 -47 43 -7 13 -27 32 -44 40 -16 9
-36 24 -43 35 -16 23 -152 126 -202 153 -20 11 -56 34 -81 51 -24 17 -66 41
-94 53 -27 13 -57 29 -65 36 -8 7 -33 18 -55 25 -22 7 -76 30 -120 50 -44 21
-98 41 -120 45 -22 3 -83 20 -135 36 -52 16 -111 34 -130 39 -66 18 -430 40
-550 33z m1357 -735 c6 -7 16 -35 23 -63 13 -49 47 -134 74 -187 8 -14 12 -29
8 -32 -3 -4 -580 -6 -1281 -6 l-1276 1 -3 -58 c-2 -32 1 -112 7 -178 17 -199
25 -306 25 -380 l1 -70 -137 -2 c-76 -1 -140 2 -143 7 -9 15 -25 150 -41 360
-9 113 -18 231 -21 263 -4 47 -8 57 -23 57 -35 0 -30 18 7 31 40 12 176 104
204 135 17 21 40 63 58 107 l11 27 1249 0 c987 0 1251 -3 1258 -12z"/>
<path d="M1918 3941 c-15 -25 -28 -27 -28 -6 0 8 -5 15 -11 15 -8 0 -10 -17
-6 -54 5 -51 4 -55 -20 -60 -30 -8 -25 -31 8 -31 22 0 24 4 27 53 3 55 14 66
32 32 6 -11 17 -20 24 -20 21 0 40 -27 26 -35 -7 -4 -17 -2 -23 4 -18 18 -29
13 -25 -11 2 -18 10 -23 33 -23 27 0 30 3 33 37 3 30 -1 40 -22 54 -35 22 -35
48 0 40 19 -5 25 -3 22 6 -8 23 -56 22 -70 -1z"/>
<path d="M4620 3823 c-70 -23 -120 -47 -125 -61 -3 -10 -13 -91 -20 -182 -8
-91 -19 -192 -24 -225 -6 -33 -13 -76 -16 -96 -10 -65 -110 -138 -193 -141
-19 -1 -38 5 -43 13 -6 8 -8 66 -6 135 4 119 5 122 40 181 38 62 68 81 88 57
6 -8 9 -30 7 -49 -4 -31 -1 -35 20 -35 44 0 62 17 62 61 0 31 -7 47 -29 70
-33 32 -57 35 -117 14 -38 -13 -107 -52 -127 -72 -13 -14 -56 -82 -77 -123
-23 -45 -37 -160 -30 -242 8 -93 69 -137 162 -117 62 13 174 70 189 97 18 33
36 28 31 -9 l-5 -31 74 7 c41 4 77 9 82 12 4 2 7 20 7 39 0 53 38 293 54 339
18 50 59 84 84 69 23 -15 26 -59 12 -185 -6 -59 -8 -123 -4 -144 13 -70 102
-96 194 -54 25 11 52 30 62 42 l16 21 20 -24 c19 -24 26 -25 121 -25 l100 0
59 59 c62 61 73 87 87 203 5 41 11 52 28 57 31 8 38 -5 27 -44 -14 -50 -12
-111 5 -161 30 -84 74 -110 188 -110 73 0 81 2 122 33 53 39 96 120 104 193 6
48 7 50 40 53 30 3 33 1 25 -15 -5 -10 -10 -62 -12 -116 -3 -77 0 -104 12
-122 17 -26 110 -75 142 -75 51 0 116 74 76 86 -59 19 -62 22 -62 69 0 72 19
227 46 376 13 76 24 144 24 153 0 13 -13 16 -80 16 -74 0 -80 -1 -84 -22 -7
-34 -46 -262 -46 -270 0 -14 -41 -29 -60 -23 -11 4 -20 15 -20 25 0 43 -61
126 -107 145 -40 17 -129 20 -138 5 -3 -5 -14 -10 -23 -10 -10 0 -32 -16 -51
-35 -18 -19 -36 -35 -41 -35 -4 0 -15 -16 -24 -35 -28 -57 -96 -57 -96 0 0 36
-27 91 -54 109 -30 19 -146 22 -179 4 -51 -27 -126 -102 -133 -132 -3 -17 -9
-35 -13 -41 -20 -29 -34 -97 -34 -166 -1 -77 -1 -78 -33 -95 -32 -17 -34 -17
-54 1 -23 21 -23 28 0 140 19 88 23 175 10 199 -30 56 -104 70 -191 36 -28
-12 -53 -19 -54 -18 -2 2 1 39 5 83 11 102 12 145 3 144 -5 0 -15 -3 -23 -6z
m645 -217 c13 -19 14 -29 6 -45 -16 -28 -14 -62 5 -82 12 -14 13 -24 5 -56 -6
-21 -13 -54 -16 -74 -8 -52 -45 -89 -90 -89 -32 0 -38 4 -51 35 -24 58 -17
112 29 235 25 65 35 80 62 90 30 13 33 12 50 -14z m473 -8 c17 -17 15 -47 -3
-54 -23 -9 -19 -59 6 -76 20 -13 21 -17 9 -68 -6 -30 -22 -73 -33 -95 -20 -35
-27 -40 -63 -43 -37 -3 -42 0 -53 27 -25 58 5 258 44 301 20 22 74 27 93 8z"/>
<path d="M3795 3705 c-5 -2 -30 -9 -54 -15 -26 -7 -59 -26 -84 -51 -23 -21
-44 -39 -49 -39 -15 0 -40 -112 -34 -151 10 -64 27 -88 90 -131 84 -56 125
-96 147 -143 24 -53 24 -89 -3 -136 -26 -48 -51 -64 -105 -73 -92 -16 -142 59
-87 131 15 19 43 45 62 56 l35 21 -23 18 c-31 25 -56 22 -124 -15 -57 -31 -60
-35 -79 -95 -18 -57 -19 -69 -7 -115 7 -29 17 -57 22 -64 11 -14 115 -46 127
-39 4 3 41 11 82 17 78 12 116 27 140 55 7 9 30 27 51 40 20 13 40 33 44 46 4
12 16 35 27 49 30 42 35 153 9 205 -35 69 -115 134 -194 158 -22 7 -78 94 -78
122 0 30 50 90 86 103 42 15 50 14 74 -11 24 -26 26 -68 5 -107 -18 -35 -12
-42 29 -34 40 8 56 21 73 60 16 40 4 108 -24 128 -16 13 -131 20 -158 10z"/>
<path d="M3010 3231 c-53 -11 -100 -32 -100 -45 0 -9 -21 -13 -64 -14 -81 -1
-129 -25 -180 -91 -42 -53 -50 -71 -86 -189 -17 -55 -21 -87 -17 -132 5 -57 4
-61 -24 -81 -61 -43 -85 -4 -62 101 8 36 15 102 16 147 2 73 0 84 -22 107 -20
21 -34 26 -73 26 -48 0 -80 -14 -125 -53 -18 -16 -22 -16 -30 -4 -7 12 -17 12
-73 -1 -36 -8 -70 -16 -76 -17 -7 -2 -14 -46 -19 -117 -6 -107 -30 -283 -41
-300 -3 -5 -19 -15 -35 -23 -22 -12 -34 -13 -49 -5 -22 12 -24 40 -9 130 13
80 38 284 34 288 -2 2 -27 -2 -56 -8 -30 -6 -66 -14 -81 -17 -24 -5 -28 -10
-29 -42 0 -20 -2 -45 -3 -56 -2 -11 -9 -81 -15 -155 -12 -135 -12 -135 -46
-167 -38 -36 -56 -41 -75 -18 -14 17 -10 72 13 220 9 55 21 162 27 237 6 76
13 144 16 153 7 17 -21 22 -31 5 -3 -5 -17 -10 -30 -10 -13 0 -27 -4 -30 -10
-3 -5 -17 -10 -31 -10 -33 0 -41 -25 -54 -163 -28 -294 -48 -428 -67 -449 -19
-21 -88 -25 -96 -5 -7 19 5 120 37 297 8 47 18 138 22 202 l7 117 -44 -10
c-119 -27 -119 -27 -119 -65 0 -19 -4 -54 -10 -77 -5 -23 -12 -81 -15 -129 -6
-83 -8 -87 -36 -98 -41 -17 -56 -8 -63 42 -10 62 -62 98 -140 98 -74 0 -181
-52 -211 -102 -66 -114 -89 -227 -61 -300 34 -83 89 -118 185 -117 128 1 211
82 231 226 12 85 14 90 50 95 28 3 29 2 15 -132 -13 -133 24 -178 135 -166 53
7 85 21 124 58 25 23 33 23 41 -1 3 -10 19 -24 36 -31 39 -17 96 1 159 48 45
34 49 34 107 11 26 -11 42 -11 85 0 29 8 61 20 70 29 15 12 20 12 33 2 13 -11
26 -11 73 0 31 7 62 17 68 22 11 8 22 60 29 138 2 19 12 86 22 149 16 100 22
118 50 150 26 30 34 34 50 25 19 -12 20 -28 12 -255 -5 -133 4 -149 88 -149
58 0 90 12 111 41 24 34 73 62 85 50 6 -6 39 -11 74 -11 35 0 63 -2 63 -4 0
-2 -16 -20 -35 -39 -19 -19 -36 -43 -36 -54 -1 -10 -3 -29 -4 -43 -2 -14 3
-39 10 -57 23 -55 116 -63 181 -17 15 11 38 27 53 36 27 19 70 127 71 181 0
16 4 47 9 70 12 56 28 171 46 347 17 163 18 201 8 199 -5 -1 -24 -5 -43 -8z
m-127 -181 c-1 -36 -7 -109 -14 -163 -11 -94 -12 -98 -47 -127 -70 -58 -97
-34 -97 84 1 135 72 281 135 274 24 -3 25 -5 23 -68z m-1813 -280 c24 -24 25
-33 5 -50 -8 -7 -15 -25 -15 -40 0 -15 7 -33 15 -40 36 -30 0 -164 -56 -208
-24 -19 -34 -22 -57 -15 -15 5 -32 20 -38 32 -14 26 -8 181 6 195 6 6 10 17
10 25 0 21 78 121 95 121 8 0 24 -9 35 -20z m1755 -117 c-38 -33 -45 -20 -9
18 18 19 30 25 33 18 2 -7 -9 -23 -24 -36z m15 -51 c0 -36 -21 -86 -46 -113
-21 -22 -31 -26 -45 -18 -26 14 -24 44 8 87 45 62 83 82 83 44z"/>
<path d="M1874 3159 c-31 -16 -56 -64 -48 -94 7 -30 48 -65 76 -65 66 0 115
77 87 136 -12 24 -21 29 -54 31 -22 1 -49 -3 -61 -8z"/>
<path d="M254 3080 c-34 -10 -73 -25 -87 -34 -41 -28 -77 -90 -77 -136 0 -64
38 -120 81 -120 27 0 27 1 22 53 -7 81 9 127 59 162 64 47 87 54 171 55 90 0
121 -12 160 -64 34 -44 35 -91 3 -148 -24 -44 -51 -64 -96 -70 -29 -3 -28 -7
-16 135 l8 87 -81 0 c-76 0 -81 -1 -85 -22 -15 -83 -26 -165 -32 -242 -4 -48
-17 -147 -29 -220 -17 -97 -20 -134 -11 -142 6 -7 39 -14 74 -16 50 -3 65 -1
72 11 8 16 21 89 40 221 17 116 20 128 37 134 29 11 82 -13 89 -41 9 -33 -2
-171 -16 -207 -5 -15 -10 -47 -10 -71 0 -36 5 -47 32 -70 29 -25 38 -27 91
-22 70 6 79 13 49 36 -29 21 -30 52 -7 154 10 47 16 102 13 138 -4 53 -8 63
-38 88 l-34 28 41 39 c31 30 42 49 47 84 8 60 -2 89 -46 138 -32 36 -49 44
-117 62 -98 25 -221 25 -307 0z"/>
<path d="M5080 2604 c-69 -8 -172 -23 -230 -35 -58 -12 -145 -27 -195 -34
-102 -15 -135 -23 -255 -58 -47 -14 -105 -28 -130 -32 -48 -7 -112 -23 -145
-35 -82 -30 -130 -44 -194 -57 -40 -8 -121 -30 -180 -49 -58 -20 -135 -41
-171 -49 -36 -7 -96 -24 -135 -38 -38 -13 -95 -28 -125 -32 -30 -4 -90 -20
-135 -35 -95 -33 -140 -45 -220 -60 -33 -6 -80 -17 -105 -25 -141 -41 -192
-54 -260 -65 -41 -7 -136 -28 -210 -46 -74 -18 -178 -37 -230 -44 -52 -7 -142
-20 -200 -31 -195 -34 -314 -50 -442 -56 -71 -3 -128 -10 -128 -15 0 -23 258
-294 333 -351 20 -15 51 -41 69 -57 18 -17 37 -30 44 -30 6 0 30 -18 54 -40
24 -22 48 -40 54 -40 6 0 38 -18 71 -40 32 -22 71 -42 86 -45 15 -4 33 -13 40
-21 13 -15 95 -56 139 -68 14 -4 43 -16 65 -26 104 -47 136 -60 153 -60 10 0
52 -9 93 -21 250 -70 369 -83 684 -76 225 5 233 6 370 42 77 21 167 43 200 49
60 12 107 30 177 67 20 10 45 19 55 20 10 0 41 12 70 27 28 15 85 44 126 65
40 21 89 49 107 62 19 14 39 25 46 25 6 0 22 11 35 25 13 14 38 33 54 42 38
20 151 112 221 181 29 28 58 52 64 52 5 0 10 6 10 14 0 8 23 33 50 56 28 23
50 47 50 54 0 7 16 28 36 47 20 18 51 57 69 84 17 28 42 59 54 69 11 11 21 25
21 31 0 7 12 30 26 51 24 35 44 71 131 233 12 25 23 50 23 58 0 7 11 35 24 61
42 82 54 115 70 189 9 40 16 74 16 77 0 10 -170 4 -300 -10z"/>
<path d="M5444 2333 c-4 -16 -27 -66 -51 -112 -23 -46 -43 -91 -43 -98 0 -8
-9 -27 -20 -43 -11 -17 -28 -42 -39 -58 -10 -15 -22 -39 -26 -52 -4 -14 -20
-39 -36 -55 -16 -17 -37 -46 -46 -66 -23 -44 -76 -118 -129 -178 -23 -25 -46
-56 -53 -68 -6 -12 -24 -30 -40 -39 -15 -9 -36 -30 -46 -46 -9 -17 -32 -39
-49 -49 -18 -10 -38 -30 -45 -43 -7 -13 -30 -33 -51 -45 -21 -12 -40 -27 -43
-35 -6 -14 -151 -121 -201 -148 -18 -9 -47 -30 -65 -47 -18 -17 -38 -31 -45
-31 -14 0 -104 -47 -135 -71 -13 -11 -30 -19 -37 -19 -8 0 -56 -20 -107 -44
-50 -24 -112 -49 -137 -56 -25 -6 -74 -21 -110 -34 -136 -48 -132 -47 -454
-91 -126 -17 -369 -20 -465 -5 -74 12 -158 24 -273 40 -42 6 -118 26 -170 44
-51 18 -118 39 -148 46 -30 7 -80 26 -110 42 -30 16 -75 36 -100 45 -25 8 -63
28 -85 43 -22 15 -70 42 -107 60 -37 17 -75 41 -84 51 -10 11 -37 28 -61 39
-24 10 -43 24 -43 29 0 6 -19 20 -42 32 -24 12 -47 28 -53 35 -5 7 -30 29 -55
49 -86 70 -238 224 -311 315 -24 30 -50 61 -57 68 -7 8 -19 27 -27 43 l-16 29
-177 0 c-309 0 -515 20 -722 69 -19 5 -43 12 -52 16 -10 4 -18 4 -18 1 0 -18
43 -133 55 -146 21 -24 75 -120 75 -133 0 -7 13 -28 28 -47 16 -19 36 -51 46
-70 9 -19 34 -58 56 -87 21 -29 46 -65 54 -80 8 -15 28 -41 45 -57 17 -17 31
-34 31 -39 0 -5 17 -29 38 -53 20 -23 57 -66 82 -94 107 -124 368 -368 443
-415 18 -11 40 -29 49 -41 10 -12 32 -29 50 -38 18 -9 53 -32 78 -52 25 -19
61 -42 80 -52 19 -9 51 -29 70 -43 19 -15 58 -37 85 -49 28 -12 64 -32 80 -45
17 -12 57 -32 90 -44 33 -12 74 -31 92 -42 17 -11 55 -26 85 -35 29 -8 73 -24
98 -36 89 -40 106 -46 165 -58 33 -6 98 -24 145 -40 97 -32 158 -45 285 -60
50 -5 126 -16 170 -22 105 -16 603 -17 710 -1 44 7 134 19 200 28 66 8 137 20
158 25 81 22 103 28 128 38 14 6 57 18 95 27 38 9 119 37 180 61 61 24 119 44
128 44 10 0 30 8 44 18 15 10 47 26 72 36 70 28 81 34 140 71 30 18 67 37 81
40 15 3 37 17 49 31 13 13 27 24 31 24 14 0 129 70 147 90 10 11 34 26 54 34
20 9 43 24 50 34 7 10 46 42 86 71 39 29 72 56 72 61 0 5 9 11 20 15 21 7 286
269 356 352 22 26 60 74 83 105 24 32 48 58 53 58 5 0 18 20 29 45 11 25 28
49 37 54 10 5 24 22 32 38 8 15 36 60 61 98 26 39 51 82 54 97 4 14 15 34 26
44 10 9 19 21 19 27 0 5 9 21 19 36 10 14 24 45 30 68 6 23 16 45 21 48 13 8
37 63 45 105 4 19 16 47 26 62 11 14 19 31 19 37 0 6 9 26 20 46 37 66 32 72
-67 68 -126 -6 -281 -20 -333 -32 -125 -29 -184 -50 -228 -81 -26 -19 -62 -44
-79 -57 l-33 -22 0 199 c0 124 -4 200 -10 200 -5 0 -13 -12 -16 -27z m-4048
-1197 c46 -44 53 -68 21 -74 -10 -2 -21 6 -26 21 -9 22 -61 66 -61 51 0 -4 12
-31 26 -61 22 -43 24 -56 14 -68 -29 -35 -113 2 -128 57 -9 34 -2 55 16 44 5
-3 12 -18 15 -34 6 -27 52 -60 65 -47 7 6 6 8 -42 75 -28 39 -28 41 -11 60 28
31 60 25 111 -24z m3742 5 c29 -27 42 -47 42 -65 0 -34 -11 -33 -39 5 -33 44
-64 56 -95 36 -30 -20 -25 -47 13 -80 34 -28 44 -52 27 -67 -11 -8 -23 0 -54
35 -40 45 -68 55 -90 33 -21 -21 -13 -54 22 -90 26 -26 32 -38 23 -47 -6 -6
-14 -11 -19 -11 -10 0 -58 53 -58 65 0 5 -9 21 -20 35 -23 30 -25 40 -6 40 8
0 21 12 28 28 9 18 25 30 50 36 22 5 38 16 41 27 5 18 63 59 82 59 6 -1 29
-18 53 -39z m-3600 -110 c36 -18 68 -62 55 -75 -15 -15 -40 -3 -50 24 -10 27
-16 30 -52 30 -35 0 -41 -3 -47 -26 -10 -38 11 -73 47 -81 33 -6 48 -28 31
-45 -16 -16 -52 1 -89 41 -25 27 -33 45 -33 74 0 31 5 40 33 57 40 25 58 25
105 1z m148 -12 c3 -6 -3 -24 -15 -40 -26 -35 -26 -39 0 -39 26 0 79 -58 79
-87 0 -21 -31 -87 -51 -108 -6 -5 -13 -5 -19 1 -7 7 -3 23 10 49 23 44 20 82
-7 103 -28 21 -47 13 -81 -33 -38 -52 -68 -61 -57 -17 3 15 20 43 36 62 16 19
37 51 45 70 21 47 45 62 60 39z m3191 -61 c29 -20 33 -29 33 -66 0 -40 -3 -44
-47 -72 -58 -37 -92 -38 -123 -5 -18 19 -24 36 -23 65 2 49 7 56 47 81 41 25
72 24 113 -3z m-208 -91 c13 -17 5 -27 -23 -27 -53 0 -87 -61 -51 -90 21 -17
62 -16 84 4 22 20 51 21 51 2 0 -19 -47 -52 -88 -61 -62 -13 -103 41 -87 116
5 24 17 35 49 50 49 22 51 23 65 6z m-2782 -42 c12 -8 31 -30 42 -49 17 -27
19 -38 10 -63 -27 -80 -172 -64 -193 22 -7 29 15 79 41 94 26 15 75 13 100 -4z
m346 -106 c-1 -19 -16 -63 -34 -99 -26 -53 -29 -68 -19 -83 9 -15 9 -22 0 -31
-9 -8 -16 -5 -30 11 -17 21 -17 27 -5 74 8 28 21 65 29 83 8 17 20 44 25 59
15 38 37 29 34 -14z m2222 21 c0 -10 -13 -17 -40 -20 -78 -11 -92 -43 -17 -40
81 4 82 4 82 -35 0 -45 -32 -67 -91 -63 -54 4 -66 28 -14 28 36 0 85 24 85 42
0 6 -25 7 -62 3 -48 -5 -68 -3 -83 8 -18 14 -18 17 -5 42 8 15 26 33 40 41 33
18 105 14 105 -6z m-2350 -21 c30 -27 35 -37 35 -76 0 -57 -18 -72 -82 -73
-60 0 -76 6 -93 41 -22 42 -18 73 14 108 39 41 78 41 126 0z m2180 -59 c11
-12 15 -27 11 -43 -5 -20 -16 -26 -66 -37 -35 -8 -59 -18 -57 -24 6 -18 46
-19 72 -2 26 17 55 21 55 7 0 -4 -12 -20 -26 -35 -37 -36 -101 -37 -135 0
l-24 26 -5 -28 c-7 -40 -72 -88 -116 -87 -34 1 -35 0 -29 -25 12 -45 11 -56
-6 -60 -13 -2 -19 11 -29 60 -25 127 -25 137 5 168 15 15 39 30 53 33 27 5
102 -21 102 -35 0 -5 7 -8 15 -8 9 0 15 9 15 23 1 64 26 85 106 86 29 1 46 -5
59 -19z m275 6 c0 -8 -5 -18 -11 -22 -14 -8 -33 11 -25 25 10 16 36 13 36 -3z
m-2155 -53 c24 -5 41 -14 43 -24 3 -14 -4 -16 -42 -12 -53 6 -76 -7 -76 -44 0
-26 -16 -63 -28 -63 -28 1 -31 18 -13 66 40 106 39 105 58 95 10 -5 36 -13 58
-18z m316 -5 c1 -7 1 -17 0 -22 -25 -136 -29 -171 -19 -183 17 -21 -4 -36 -27
-19 -17 12 -18 19 -7 82 6 38 14 88 17 112 4 26 12 42 21 42 8 0 15 -6 15 -12z
m75 -35 c-13 -71 -18 -181 -7 -187 13 -9 5 -26 -12 -26 -37 1 -40 14 -21 129
13 80 21 111 32 111 9 0 12 -8 8 -27z m-169 -32 c28 -42 29 -66 3 -108 -18
-30 -24 -33 -69 -33 -44 0 -52 4 -80 35 -41 47 -41 85 0 120 26 21 40 25 78
23 39 -3 49 -8 68 -37z m258 19 c0 -7 -6 -15 -12 -17 -8 -3 -13 4 -13 17 0 13
5 20 13 18 6 -3 12 -11 12 -18z m976 -21 c38 -41 38 -81 0 -120 -60 -60 -171
-27 -171 52 0 22 10 41 34 65 46 46 96 47 137 3z m-1611 -29 c0 -11 -6 -20
-13 -20 -19 0 -27 10 -20 26 8 21 33 17 33 -6z m1408 -4 c4 -17 0 -18 -32 -13
-26 4 -41 1 -61 -14 -32 -26 -32 -54 1 -75 21 -14 31 -15 62 -6 41 13 51 8 36
-15 -20 -31 -58 -36 -107 -13 -71 33 -77 99 -14 139 42 27 110 25 115 -3z
m-779 -23 c-1 -65 -14 -126 -26 -131 -9 -2 -13 10 -13 45 0 56 17 123 30 123
6 0 10 -17 9 -37z m116 26 c29 1 49 -4 69 -20 25 -20 27 -26 24 -88 -2 -51 -6
-66 -18 -66 -11 0 -15 13 -16 47 -3 84 -10 98 -49 98 -39 0 -55 -23 -55 -83 0
-42 -13 -62 -35 -53 -15 6 -17 15 -10 79 7 74 19 102 38 90 6 -4 29 -6 52 -4z
m454 -5 c22 -5 31 -12 31 -26 0 -16 -4 -18 -17 -12 -26 11 -82 11 -85 -1 -2
-5 19 -17 45 -26 59 -20 71 -31 64 -62 -7 -25 -44 -47 -80 -47 -26 0 -87 35
-87 50 0 13 36 13 61 -1 21 -11 59 -4 59 11 0 4 -18 11 -40 15 -54 9 -85 35
-76 63 10 31 67 47 125 36z m-175 -15 c30 -14 36 -34 36 -121 0 -60 -3 -69
-26 -87 -37 -29 -110 -29 -141 1 -35 33 -29 66 6 34 30 -27 106 -24 121 4 10
19 9 20 -17 13 -82 -22 -133 12 -133 88 0 37 5 50 23 62 26 19 96 22 131 6z"/>
<path d="M4764 917 c-22 -19 -26 -29 -20 -50 8 -35 47 -45 92 -24 27 14 34 22
34 46 0 53 -59 68 -106 28z"/>
<path d="M1802 788 c-34 -34 9 -112 58 -103 66 13 47 115 -21 115 -14 0 -30
-5 -37 -12z"/>
<path d="M1990 681 c-14 -27 3 -68 34 -82 31 -14 50 -7 71 25 16 23 15 27 -2
50 -23 33 -87 37 -103 7z"/>
<path d="M4170 625 c-13 -13 -21 -28 -17 -31 9 -9 97 29 94 41 -7 22 -53 16
-77 -10z"/>
<path d="M3963 572 c-18 -12 -27 -60 -13 -77 15 -18 81 -20 98 -3 7 7 12 24
12 38 0 14 -5 31 -12 38 -13 13 -66 16 -85 4z"/>
<path d="M2511 524 c-26 -34 -26 -35 4 -69 21 -21 31 -26 53 -20 32 8 42 21
42 57 0 28 -31 58 -61 58 -10 0 -27 -12 -38 -26z"/>
<path d="M3752 505 c-36 -45 4 -104 57 -84 44 17 56 62 23 92 -27 24 -58 21
-80 -8z"/>
<path d="M3172 464 c-28 -20 -30 -69 -3 -84 69 -36 134 29 79 80 -26 24 -46
25 -76 4z"/>
</g>
</svg>
