<?xml version="1.0" encoding="UTF-8"?>
<svg xmlns="http://www.w3.org/2000/svg" xmlns:xlink="http://www.w3.org/1999/xlink" width="32px" height="32px" viewBox="0 0 32 32" version="1.1">
<g id="surface1">
<path style=" stroke:none;fill-rule:nonzero;fill:rgb(0%,0%,0%);fill-opacity:1;" d="M 13.023438 0.0507812 C 13.011719 0.0742188 12.929688 0.101562 12.851562 0.101562 C 12.769531 0.101562 12.65625 0.121094 12.589844 0.144531 C 12.523438 0.171875 12.304688 0.214844 12.101562 0.246094 C 11.769531 0.300781 11.320312 0.425781 11.175781 0.503906 C 11.148438 0.519531 10.953125 0.585938 10.75 0.644531 C 10.320312 0.773438 10.253906 0.800781 9.949219 0.941406 C 9.824219 0.996094 9.660156 1.058594 9.585938 1.078125 C 9.460938 1.109375 9.300781 1.179688 8.851562 1.421875 C 8.78125 1.453125 8.601562 1.546875 8.445312 1.621094 C 8.289062 1.695312 8.113281 1.800781 8.058594 1.855469 C 8 1.90625 7.925781 1.949219 7.890625 1.949219 C 7.851562 1.949219 7.636719 2.074219 7.398438 2.226562 C 7.164062 2.375 6.949219 2.5 6.921875 2.5 C 6.886719 2.5 6.851562 2.535156 6.835938 2.574219 C 6.816406 2.613281 6.710938 2.710938 6.589844 2.785156 C 6.175781 3.050781 5.535156 3.558594 5.148438 3.929688 C 5.078125 3.996094 4.996094 4.078125 4.953125 4.109375 C 4.570312 4.476562 3.820312 5.25 3.574219 5.554688 C 3.273438 5.921875 2.800781 6.558594 2.800781 6.59375 C 2.800781 6.621094 2.710938 6.734375 2.601562 6.855469 C 2.488281 6.976562 2.398438 7.105469 2.398438 7.140625 C 2.398438 7.175781 2.289062 7.363281 2.15625 7.566406 C 2.015625 7.761719 1.890625 7.984375 1.875 8.058594 C 1.855469 8.128906 1.800781 8.230469 1.746094 8.28125 C 1.695312 8.324219 1.648438 8.390625 1.648438 8.421875 C 1.648438 8.449219 1.605469 8.53125 1.550781 8.601562 C 1.496094 8.671875 1.449219 8.761719 1.449219 8.800781 C 1.449219 8.839844 1.355469 9.054688 1.246094 9.273438 C 1.128906 9.496094 0.996094 9.820312 0.945312 10 C 0.890625 10.179688 0.804688 10.40625 0.753906 10.5 C 0.703125 10.59375 0.644531 10.796875 0.628906 10.941406 C 0.59375 11.199219 0.578125 11.246094 0.460938 11.484375 C 0.425781 11.550781 0.398438 11.644531 0.398438 11.695312 C 0.398438 11.75 0.378906 11.808594 0.351562 11.824219 C 0.324219 11.839844 0.300781 11.910156 0.300781 11.980469 C 0.300781 12.046875 0.273438 12.144531 0.238281 12.199219 C 0.203125 12.25 0.195312 12.308594 0.210938 12.328125 C 0.253906 12.371094 1.941406 12.261719 2.324219 12.191406 C 2.59375 12.140625 3.054688 11.949219 3.398438 11.75 C 3.566406 11.648438 3.625 11.589844 3.664062 11.484375 C 3.679688 11.441406 3.71875 11.398438 3.75 11.398438 C 3.78125 11.398438 3.804688 11.929688 3.808594 12.910156 C 3.824219 14.164062 3.835938 14.425781 3.894531 14.425781 C 4 14.425781 4.035156 14.316406 4.09375 13.78125 C 4.128906 13.476562 4.21875 13.074219 4.328125 12.753906 C 4.425781 12.464844 4.523438 12.125 4.554688 12 C 4.585938 11.875 4.691406 11.605469 4.796875 11.398438 C 4.898438 11.195312 5 10.960938 5.019531 10.886719 C 5.039062 10.804688 5.113281 10.648438 5.191406 10.535156 C 5.265625 10.421875 5.394531 10.175781 5.480469 9.996094 C 5.570312 9.808594 5.664062 9.644531 5.695312 9.628906 C 5.726562 9.609375 5.785156 9.511719 5.835938 9.410156 C 5.878906 9.308594 6.003906 9.125 6.105469 9 C 6.203125 8.875 6.296875 8.75 6.304688 8.714844 C 6.378906 8.496094 8.441406 6.433594 8.664062 6.355469 C 8.699219 6.34375 8.820312 6.25 8.933594 6.144531 C 9.054688 6.035156 9.179688 5.949219 9.214844 5.949219 C 9.253906 5.949219 9.363281 5.886719 9.464844 5.804688 C 9.566406 5.730469 9.71875 5.636719 9.808594 5.601562 C 9.898438 5.558594 10.105469 5.445312 10.261719 5.339844 C 10.414062 5.234375 10.574219 5.148438 10.605469 5.148438 C 10.640625 5.148438 10.875 5.050781 11.121094 4.925781 C 11.371094 4.804688 11.699219 4.671875 11.851562 4.628906 C 12 4.589844 12.351562 4.480469 12.625 4.378906 C 12.898438 4.285156 13.296875 4.183594 13.5 4.15625 C 13.703125 4.128906 14.089844 4.066406 14.351562 4.019531 C 14.933594 3.914062 16.964844 3.890625 17.398438 3.984375 C 17.808594 4.074219 18.179688 4.140625 18.605469 4.199219 C 18.816406 4.230469 19.164062 4.324219 19.378906 4.40625 C 19.601562 4.488281 19.855469 4.574219 19.949219 4.601562 C 20.261719 4.671875 20.421875 4.734375 20.710938 4.890625 C 20.871094 4.976562 21.078125 5.070312 21.179688 5.101562 C 21.273438 5.136719 21.515625 5.261719 21.714844 5.378906 C 21.910156 5.5 22.101562 5.601562 22.136719 5.601562 C 22.171875 5.601562 22.269531 5.664062 22.359375 5.746094 C 22.449219 5.820312 22.574219 5.898438 22.628906 5.921875 C 22.691406 5.941406 22.789062 6 22.855469 6.054688 C 22.921875 6.109375 23.023438 6.199219 23.085938 6.25 C 23.144531 6.304688 23.285156 6.40625 23.394531 6.476562 C 23.503906 6.539062 23.621094 6.644531 23.648438 6.695312 C 23.679688 6.75 23.773438 6.828125 23.863281 6.875 C 23.953125 6.914062 24.070312 7.019531 24.121094 7.101562 C 24.164062 7.183594 24.269531 7.285156 24.351562 7.324219 C 24.429688 7.363281 24.535156 7.46875 24.585938 7.550781 C 24.636719 7.636719 24.746094 7.75 24.835938 7.800781 C 24.925781 7.855469 25 7.925781 25 7.964844 C 25 8 25.105469 8.140625 25.238281 8.28125 C 25.464844 8.515625 25.644531 8.761719 26.011719 9.324219 L 26.175781 9.574219 L 26.976562 9.605469 C 27.820312 9.640625 28.351562 9.695312 29.050781 9.824219 C 29.285156 9.871094 29.664062 9.933594 29.898438 9.976562 C 30.355469 10.054688 30.503906 10.105469 30.839844 10.265625 C 30.953125 10.320312 31.066406 10.351562 31.078125 10.335938 C 31.101562 10.316406 31.046875 10.160156 30.960938 9.988281 C 30.875 9.816406 30.78125 9.585938 30.75 9.476562 C 30.714844 9.363281 30.65625 9.21875 30.613281 9.148438 C 30.574219 9.078125 30.5 8.925781 30.445312 8.800781 C 30.269531 8.410156 30.226562 8.324219 30.160156 8.253906 C 30.125 8.21875 30.023438 8.050781 29.941406 7.878906 C 29.859375 7.714844 29.730469 7.496094 29.660156 7.40625 C 29.589844 7.308594 29.484375 7.144531 29.425781 7.046875 C 29.238281 6.699219 28.738281 6.039062 28.324219 5.574219 C 28.230469 5.464844 28.035156 5.238281 27.894531 5.074219 C 27.761719 4.910156 27.625 4.753906 27.605469 4.730469 C 27.558594 4.691406 27.226562 4.351562 27.160156 4.289062 C 26.863281 3.996094 26.519531 3.699219 26.476562 3.699219 C 26.445312 3.699219 26.386719 3.640625 26.351562 3.570312 C 26.308594 3.5 26.203125 3.410156 26.113281 3.375 C 26.023438 3.335938 25.878906 3.226562 25.796875 3.128906 C 25.710938 3.03125 25.621094 2.949219 25.589844 2.949219 C 25.566406 2.949219 25.378906 2.824219 25.175781 2.675781 C 24.976562 2.523438 24.78125 2.398438 24.746094 2.398438 C 24.703125 2.398438 24.621094 2.339844 24.554688 2.269531 C 24.484375 2.199219 24.273438 2.066406 24.078125 1.96875 C 23.886719 1.871094 23.679688 1.75 23.621094 1.695312 C 23.558594 1.640625 23.429688 1.574219 23.328125 1.546875 C 23.230469 1.515625 23.015625 1.414062 22.859375 1.320312 C 22.703125 1.226562 22.453125 1.109375 22.304688 1.070312 C 22.15625 1.023438 21.929688 0.941406 21.804688 0.875 C 21.679688 0.816406 21.464844 0.734375 21.324219 0.699219 C 21.191406 0.671875 21.03125 0.621094 20.976562 0.601562 C 20.316406 0.328125 19.980469 0.246094 19.085938 0.113281 C 18.984375 0.101562 18.886719 0.0703125 18.871094 0.046875 C 18.828125 -0.0195312 13.066406 -0.015625 13.023438 0.0507812 Z M 16.328125 1.179688 C 16.425781 1.226562 16.5 1.300781 16.5 1.34375 C 16.5 1.480469 16.453125 1.496094 16.300781 1.414062 C 16.214844 1.375 16.128906 1.355469 16.101562 1.375 C 16 1.441406 16.054688 1.554688 16.214844 1.625 C 16.410156 1.703125 16.476562 1.773438 16.515625 1.949219 C 16.585938 2.234375 16.421875 2.414062 16.089844 2.410156 C 15.863281 2.40625 15.75 2.328125 15.75 2.191406 C 15.75 2.105469 15.769531 2.09375 15.863281 2.125 C 16.15625 2.214844 16.238281 2.210938 16.300781 2.101562 C 16.363281 1.984375 16.296875 1.851562 16.171875 1.851562 C 16.136719 1.851562 16.023438 1.773438 15.925781 1.679688 C 15.761719 1.523438 15.75 1.5 15.808594 1.375 C 15.839844 1.304688 15.925781 1.210938 15.996094 1.175781 C 16.15625 1.085938 16.128906 1.085938 16.328125 1.179688 Z M 14.714844 1.261719 C 14.726562 1.296875 14.695312 1.414062 14.648438 1.523438 C 14.429688 2.035156 14.398438 2.109375 14.398438 2.214844 C 14.398438 2.28125 14.371094 2.375 14.328125 2.425781 C 14.238281 2.554688 14.148438 2.480469 13.921875 2.078125 C 13.820312 1.910156 13.683594 1.703125 13.621094 1.613281 C 13.476562 1.425781 13.476562 1.398438 13.589844 1.398438 C 13.695312 1.398438 13.875 1.574219 13.921875 1.726562 C 13.949219 1.820312 14.226562 2.148438 14.269531 2.148438 C 14.28125 2.148438 14.304688 2.03125 14.324219 1.886719 C 14.386719 1.414062 14.628906 1.023438 14.714844 1.261719 Z M 15.203125 1.335938 C 15.296875 1.574219 15.414062 1.820312 15.503906 1.949219 C 15.550781 2.019531 15.605469 2.148438 15.625 2.234375 C 15.675781 2.476562 15.53125 2.449219 15.398438 2.199219 C 15.304688 2.019531 15.28125 2 15.101562 2 C 14.890625 2 14.851562 2.035156 14.804688 2.269531 C 14.785156 2.359375 14.734375 2.429688 14.683594 2.441406 C 14.570312 2.464844 14.574219 2.339844 14.699219 1.984375 C 14.753906 1.828125 14.800781 1.671875 14.800781 1.628906 C 14.800781 1.585938 14.839844 1.476562 14.886719 1.375 C 14.984375 1.160156 15.128906 1.144531 15.203125 1.335938 Z M 17.671875 1.316406 C 17.921875 1.453125 17.976562 1.578125 17.769531 1.53125 C 17.210938 1.398438 16.945312 1.453125 16.851562 1.714844 C 16.804688 1.855469 16.816406 1.894531 16.941406 2.074219 C 17.078125 2.273438 17.085938 2.273438 17.40625 2.273438 C 17.648438 2.273438 17.726562 2.289062 17.726562 2.351562 C 17.726562 2.453125 17.363281 2.519531 17.140625 2.449219 C 16.875 2.375 16.601562 2.039062 16.601562 1.796875 C 16.601562 1.625 16.628906 1.585938 16.863281 1.40625 C 17.171875 1.164062 17.375 1.144531 17.671875 1.316406 Z M 18.371094 1.375 C 18.691406 1.476562 18.800781 1.574219 18.800781 1.78125 C 18.800781 1.90625 18.765625 1.96875 18.648438 2.050781 L 18.5 2.15625 L 18.609375 2.34375 C 18.679688 2.46875 18.703125 2.566406 18.679688 2.628906 C 18.644531 2.714844 18.628906 2.710938 18.5 2.554688 C 18.421875 2.460938 18.351562 2.339844 18.339844 2.285156 C 18.320312 2.160156 18.191406 2.074219 18.078125 2.113281 C 18.023438 2.136719 18 2.203125 18 2.324219 C 18 2.449219 17.980469 2.5 17.925781 2.5 C 17.863281 2.5 17.851562 2.460938 17.871094 2.335938 C 17.886719 2.25 17.910156 2.011719 17.925781 1.804688 C 17.976562 1.246094 17.964844 1.25 18.371094 1.375 Z M 13.359375 1.535156 C 13.410156 1.578125 13.449219 1.644531 13.449219 1.675781 C 13.449219 1.710938 13.535156 1.839844 13.640625 1.964844 C 13.835938 2.203125 13.96875 2.484375 13.90625 2.523438 C 13.878906 2.535156 13.785156 2.46875 13.691406 2.371094 C 13.515625 2.199219 13.511719 2.195312 13.304688 2.261719 C 13.128906 2.316406 13.101562 2.34375 13.101562 2.460938 C 13.101562 2.644531 13.050781 2.75 12.964844 2.75 C 12.90625 2.75 12.894531 2.710938 12.921875 2.585938 C 12.933594 2.5 12.976562 2.253906 13 2.050781 C 13.085938 1.460938 13.160156 1.351562 13.359375 1.535156 Z M 12.636719 2.003906 C 12.734375 2.476562 12.734375 2.613281 12.628906 2.773438 C 12.476562 3.015625 11.898438 2.898438 11.898438 2.628906 C 11.898438 2.488281 12.011719 2.488281 12.125 2.628906 C 12.226562 2.753906 12.253906 2.769531 12.378906 2.726562 C 12.574219 2.65625 12.589844 2.441406 12.445312 1.984375 C 12.351562 1.695312 12.34375 1.636719 12.40625 1.59375 C 12.511719 1.53125 12.554688 1.605469 12.636719 2.003906 Z M 19.230469 1.78125 C 19.214844 1.90625 19.164062 2.164062 19.113281 2.359375 C 19.035156 2.695312 18.945312 2.816406 18.851562 2.71875 C 18.808594 2.679688 18.839844 2.539062 19.058594 1.761719 C 19.144531 1.460938 19.273438 1.46875 19.230469 1.78125 Z M 20.125 1.921875 C 20.179688 2.003906 20.195312 2.09375 20.175781 2.214844 C 20.136719 2.429688 19.945312 2.523438 19.65625 2.484375 C 19.449219 2.460938 19.351562 2.515625 19.351562 2.65625 C 19.351562 2.699219 19.320312 2.765625 19.28125 2.796875 C 19.164062 2.890625 19.160156 2.773438 19.261719 2.324219 C 19.359375 1.855469 19.433594 1.640625 19.511719 1.59375 C 19.585938 1.546875 20.035156 1.785156 20.125 1.921875 Z M 20.773438 1.984375 C 21.015625 2.03125 21.398438 2.246094 21.398438 2.328125 C 21.398438 2.410156 21.339844 2.410156 21.070312 2.324219 C 20.980469 2.296875 20.945312 2.339844 20.808594 2.644531 C 20.71875 2.839844 20.648438 3.03125 20.648438 3.070312 C 20.648438 3.105469 20.613281 3.164062 20.574219 3.199219 C 20.460938 3.296875 20.425781 3.128906 20.519531 2.929688 C 20.566406 2.835938 20.601562 2.726562 20.601562 2.679688 C 20.601562 2.640625 20.636719 2.511719 20.679688 2.398438 C 20.761719 2.203125 20.761719 2.191406 20.671875 2.125 C 20.613281 2.085938 20.535156 2.050781 20.488281 2.050781 C 20.441406 2.050781 20.398438 2.03125 20.398438 2.011719 C 20.398438 1.933594 20.46875 1.894531 20.546875 1.925781 C 20.589844 1.945312 20.695312 1.96875 20.773438 1.984375 Z M 9.449219 3.03125 C 9.539062 3.296875 9.804688 3.699219 9.890625 3.699219 C 9.929688 3.699219 10.070312 3.640625 10.203125 3.566406 C 10.339844 3.496094 10.464844 3.449219 10.480469 3.464844 C 10.539062 3.523438 10.449219 3.648438 10.316406 3.703125 C 10.238281 3.734375 10.089844 3.804688 9.980469 3.859375 L 9.789062 3.960938 L 9.644531 3.789062 C 9.570312 3.699219 9.503906 3.601562 9.5 3.570312 C 9.5 3.539062 9.433594 3.394531 9.351562 3.246094 C 9.175781 2.929688 9.164062 2.851562 9.296875 2.851562 C 9.359375 2.851562 9.410156 2.90625 9.449219 3.03125 Z M 9.179688 3.175781 C 9.25 3.300781 9.328125 3.398438 9.355469 3.398438 C 9.378906 3.398438 9.398438 3.429688 9.398438 3.46875 C 9.398438 3.503906 9.453125 3.636719 9.515625 3.753906 C 9.628906 3.96875 9.640625 4.101562 9.546875 4.101562 C 9.515625 4.101562 9.464844 4.023438 9.425781 3.933594 C 9.386719 3.851562 9.289062 3.699219 9.214844 3.609375 L 9.074219 3.445312 L 9.09375 3.851562 C 9.113281 4.304688 9.070312 4.398438 8.890625 4.316406 C 8.175781 3.988281 8.113281 3.980469 8.339844 4.214844 C 8.496094 4.371094 8.609375 4.699219 8.515625 4.699219 C 8.453125 4.699219 8.199219 4.433594 8.199219 4.371094 C 8.199219 4.34375 8.109375 4.203125 8 4.054688 C 7.890625 3.910156 7.800781 3.769531 7.800781 3.746094 C 7.800781 3.71875 7.863281 3.699219 7.941406 3.699219 C 8.074219 3.699219 8.289062 3.796875 8.714844 4.039062 C 8.820312 4.101562 8.914062 4.148438 8.925781 4.148438 C 8.941406 4.148438 8.949219 3.878906 8.949219 3.550781 C 8.949219 3.199219 8.96875 2.949219 9 2.949219 C 9.023438 2.949219 9.105469 3.050781 9.179688 3.175781 Z M 24.054688 3.699219 C 24.269531 3.808594 24.480469 4.089844 24.398438 4.171875 C 24.328125 4.238281 24.203125 4.164062 24.148438 4.03125 C 24.074219 3.828125 23.886719 3.734375 23.613281 3.765625 C 23.335938 3.796875 23.25 3.890625 23.25 4.179688 C 23.25 4.441406 23.429688 4.636719 23.703125 4.679688 C 23.851562 4.703125 23.898438 4.734375 23.898438 4.804688 C 23.898438 4.863281 23.863281 4.898438 23.800781 4.898438 C 23.675781 4.898438 23.195312 4.65625 23.179688 4.578125 C 23.171875 4.550781 23.136719 4.441406 23.101562 4.328125 C 23.019531 4.078125 23.109375 3.773438 23.296875 3.675781 C 23.484375 3.570312 23.824219 3.585938 24.054688 3.699219 Z M 7.75 3.925781 C 7.75 3.960938 7.679688 4.050781 7.589844 4.113281 L 7.433594 4.238281 L 7.546875 4.378906 C 7.886719 4.820312 8.046875 5.074219 8.003906 5.113281 C 7.929688 5.191406 7.78125 5.109375 7.714844 4.960938 C 7.679688 4.886719 7.554688 4.71875 7.433594 4.59375 L 7.21875 4.363281 L 7.054688 4.511719 C 6.894531 4.648438 6.800781 4.660156 6.800781 4.523438 C 6.800781 4.453125 6.878906 4.386719 7.375 4.023438 C 7.671875 3.808594 7.75 3.789062 7.75 3.925781 Z M 24.976562 4.375 C 25.09375 4.488281 25.148438 4.75 25.054688 4.75 C 25.03125 4.75 24.976562 4.695312 24.929688 4.625 C 24.839844 4.488281 24.664062 4.460938 24.621094 4.574219 C 24.605469 4.613281 24.640625 4.714844 24.695312 4.796875 C 24.828125 4.984375 24.828125 5.191406 24.691406 5.335938 C 24.558594 5.46875 24.351562 5.484375 24.203125 5.359375 C 24.085938 5.261719 23.945312 5 23.980469 4.941406 C 24.03125 4.859375 24.148438 4.898438 24.148438 5 C 24.148438 5.175781 24.519531 5.28125 24.585938 5.125 C 24.601562 5.078125 24.574219 4.949219 24.53125 4.835938 C 24.429688 4.566406 24.429688 4.453125 24.535156 4.339844 C 24.648438 4.214844 24.828125 4.226562 24.976562 4.375 Z M 6.960938 4.910156 C 7.484375 5.511719 7.535156 5.601562 7.351562 5.601562 C 7.296875 5.601562 7.21875 5.539062 7.175781 5.453125 C 7.136719 5.371094 7.074219 5.289062 7.046875 5.273438 C 6.996094 5.238281 6.550781 5.660156 6.550781 5.738281 C 6.550781 5.761719 6.621094 5.835938 6.699219 5.910156 C 6.84375 6.039062 6.894531 6.148438 6.804688 6.148438 C 6.714844 6.148438 6.359375 5.890625 6.304688 5.78125 C 6.269531 5.726562 6.171875 5.625 6.074219 5.558594 C 5.96875 5.496094 5.898438 5.410156 5.898438 5.351562 C 5.898438 5.199219 6.070312 5.226562 6.214844 5.398438 C 6.285156 5.480469 6.363281 5.550781 6.394531 5.550781 C 6.425781 5.550781 6.535156 5.460938 6.648438 5.34375 C 6.84375 5.148438 6.84375 5.140625 6.773438 5 C 6.734375 4.921875 6.679688 4.839844 6.648438 4.824219 C 6.574219 4.78125 6.589844 4.648438 6.664062 4.648438 C 6.703125 4.648438 6.835938 4.769531 6.960938 4.910156 Z M 25.703125 5.054688 C 25.816406 5.136719 25.851562 5.195312 25.851562 5.328125 C 25.851562 5.550781 25.769531 5.550781 25.679688 5.324219 C 25.628906 5.210938 25.570312 5.148438 25.503906 5.148438 C 25.351562 5.148438 25.339844 5.21875 25.453125 5.476562 C 25.589844 5.78125 25.523438 5.976562 25.285156 6.015625 C 24.980469 6.058594 24.589844 5.78125 24.671875 5.574219 C 24.714844 5.449219 24.789062 5.488281 24.929688 5.699219 C 25.078125 5.921875 25.125 5.941406 25.261719 5.816406 C 25.378906 5.710938 25.375 5.589844 25.25 5.476562 C 25.054688 5.300781 25.179688 4.949219 25.441406 4.949219 C 25.503906 4.949219 25.625 4.996094 25.703125 5.054688 Z M 25.703125 5.054688 "/>
<path style=" stroke:none;fill-rule:nonzero;fill:rgb(0%,0%,0%);fill-opacity:1;" d="M 15 1.644531 C 14.921875 1.800781 14.941406 1.851562 15.074219 1.851562 C 15.199219 1.851562 15.230469 1.785156 15.171875 1.628906 C 15.128906 1.523438 15.066406 1.53125 15 1.644531 Z M 15 1.644531 "/>
<path style=" stroke:none;fill-rule:nonzero;fill:rgb(0%,0%,0%);fill-opacity:1;" d="M 18.160156 1.558594 C 18.125 1.59375 18.101562 1.695312 18.101562 1.785156 C 18.101562 1.945312 18.109375 1.949219 18.296875 1.949219 C 18.539062 1.949219 18.640625 1.851562 18.558594 1.675781 C 18.523438 1.605469 18.46875 1.550781 18.429688 1.550781 C 18.390625 1.550781 18.328125 1.539062 18.289062 1.523438 C 18.253906 1.511719 18.195312 1.523438 18.160156 1.558594 Z M 18.160156 1.558594 "/>
<path style=" stroke:none;fill-rule:nonzero;fill:rgb(0%,0%,0%);fill-opacity:1;" d="M 13.230469 1.878906 C 13.183594 2.003906 13.195312 2.050781 13.269531 2.050781 C 13.363281 2.050781 13.410156 1.980469 13.371094 1.878906 C 13.328125 1.78125 13.269531 1.78125 13.230469 1.878906 Z M 13.230469 1.878906 "/>
<path style=" stroke:none;fill-rule:nonzero;fill:rgb(0%,0%,0%);fill-opacity:1;" d="M 19.550781 2.054688 C 19.503906 2.21875 19.503906 2.273438 19.558594 2.304688 C 19.746094 2.425781 20.039062 2.253906 19.980469 2.058594 C 19.949219 1.976562 19.761719 1.851562 19.648438 1.851562 C 19.625 1.851562 19.578125 1.945312 19.550781 2.054688 Z M 19.550781 2.054688 "/>
<path style=" stroke:none;fill-rule:nonzero;fill:rgb(0%,0%,0%);fill-opacity:1;" d="M 15.449219 4.585938 C 14.054688 4.65625 13.71875 4.710938 12.785156 5.003906 C 12.625 5.054688 12.410156 5.109375 12.308594 5.128906 C 12.210938 5.144531 11.945312 5.246094 11.726562 5.351562 C 11.503906 5.453125 11.203125 5.574219 11.066406 5.625 C 10.921875 5.671875 10.789062 5.730469 10.773438 5.753906 C 10.753906 5.78125 10.59375 5.871094 10.414062 5.960938 C 10.234375 6.046875 10.023438 6.171875 9.949219 6.234375 C 9.871094 6.300781 9.730469 6.386719 9.636719 6.425781 C 9.535156 6.464844 9.445312 6.519531 9.425781 6.550781 C 9.410156 6.578125 9.230469 6.726562 9.023438 6.871094 C 8.636719 7.160156 8.484375 7.289062 8.25 7.523438 C 8.164062 7.605469 8.074219 7.695312 8.046875 7.726562 C 8.015625 7.75 7.910156 7.855469 7.820312 7.949219 C 7.726562 8.046875 7.613281 8.160156 7.566406 8.199219 C 7.335938 8.40625 6.75 9.113281 6.75 9.183594 C 6.75 9.210938 6.660156 9.328125 6.550781 9.449219 C 6.441406 9.570312 6.335938 9.726562 6.316406 9.796875 C 6.300781 9.863281 6.203125 10.023438 6.101562 10.160156 C 6 10.289062 5.890625 10.480469 5.855469 10.578125 C 5.820312 10.679688 5.738281 10.835938 5.679688 10.921875 C 5.621094 11.011719 5.546875 11.179688 5.503906 11.304688 C 5.46875 11.425781 5.421875 11.566406 5.394531 11.609375 C 5.285156 11.828125 5.253906 11.890625 5.160156 12.125 C 5.101562 12.261719 5.039062 12.476562 5.023438 12.601562 C 5.003906 12.726562 4.953125 12.925781 4.914062 13.050781 C 4.761719 13.503906 4.644531 13.988281 4.636719 14.25 L 4.625 14.425781 L 5.726562 14.414062 C 6.929688 14.40625 7.300781 14.359375 8.425781 14.101562 C 8.644531 14.046875 9.003906 13.980469 9.226562 13.953125 C 9.605469 13.910156 9.816406 13.855469 10.449219 13.644531 C 10.601562 13.601562 10.898438 13.523438 11.113281 13.480469 C 11.324219 13.433594 11.566406 13.371094 11.640625 13.328125 C 11.714844 13.296875 11.945312 13.226562 12.148438 13.175781 C 12.605469 13.070312 12.851562 12.988281 13.164062 12.851562 C 13.296875 12.796875 13.585938 12.699219 13.816406 12.640625 C 14.039062 12.585938 14.25 12.519531 14.273438 12.5 C 14.359375 12.445312 14.863281 12.261719 15.039062 12.226562 C 15.128906 12.203125 15.414062 12.105469 15.671875 12.003906 C 15.925781 11.898438 16.253906 11.785156 16.40625 11.75 C 16.644531 11.695312 16.894531 11.605469 17.433594 11.371094 C 17.519531 11.328125 17.636719 11.300781 17.695312 11.300781 C 17.800781 11.300781 17.898438 11.265625 18.625 10.988281 C 18.765625 10.933594 19.019531 10.863281 19.199219 10.828125 C 19.378906 10.789062 19.675781 10.703125 19.855469 10.640625 C 20.035156 10.570312 20.339844 10.484375 20.53125 10.449219 C 20.71875 10.421875 21.019531 10.34375 21.199219 10.289062 C 21.644531 10.148438 21.835938 10.109375 22.523438 9.996094 C 22.855469 9.945312 23.238281 9.878906 23.375 9.851562 C 23.714844 9.785156 24.21875 9.714844 24.863281 9.644531 C 25.160156 9.609375 25.398438 9.566406 25.398438 9.546875 C 25.398438 9.519531 25.378906 9.5 25.359375 9.5 C 25.335938 9.5 25.226562 9.359375 25.113281 9.183594 C 25 9.011719 24.828125 8.789062 24.730469 8.699219 C 24.628906 8.605469 24.550781 8.503906 24.550781 8.476562 C 24.550781 8.445312 24.449219 8.339844 24.328125 8.234375 C 24.203125 8.136719 24.09375 8.011719 24.078125 7.960938 C 24.066406 7.914062 23.976562 7.828125 23.878906 7.78125 C 23.789062 7.730469 23.679688 7.636719 23.644531 7.566406 C 23.609375 7.5 23.511719 7.40625 23.425781 7.363281 C 23.34375 7.320312 23.246094 7.246094 23.210938 7.191406 C 23.128906 7.074219 22.449219 6.558594 22.199219 6.425781 C 22.101562 6.371094 21.921875 6.253906 21.796875 6.171875 C 21.675781 6.085938 21.464844 5.964844 21.324219 5.90625 C 21.191406 5.839844 21.039062 5.761719 21 5.726562 C 20.960938 5.691406 20.835938 5.636719 20.726562 5.601562 C 20.613281 5.566406 20.34375 5.449219 20.125 5.351562 C 19.90625 5.246094 19.636719 5.144531 19.523438 5.125 C 19.414062 5.109375 19.109375 5.023438 18.851562 4.945312 C 18.589844 4.863281 18.296875 4.773438 18.199219 4.75 C 17.871094 4.660156 16.050781 4.550781 15.449219 4.585938 Z M 22.234375 8.261719 C 22.265625 8.296875 22.316406 8.433594 22.351562 8.574219 C 22.414062 8.820312 22.585938 9.246094 22.71875 9.511719 C 22.761719 9.578125 22.78125 9.65625 22.761719 9.671875 C 22.746094 9.691406 19.859375 9.699219 16.355469 9.699219 L 9.976562 9.695312 L 9.960938 9.984375 C 9.949219 10.144531 9.964844 10.546875 9.996094 10.875 C 10.078125 11.871094 10.121094 12.40625 10.121094 12.773438 L 10.125 13.125 L 9.441406 13.136719 C 9.058594 13.140625 8.738281 13.125 8.726562 13.101562 C 8.679688 13.023438 8.601562 12.351562 8.519531 11.300781 C 8.476562 10.734375 8.429688 10.144531 8.414062 9.984375 C 8.394531 9.75 8.375 9.699219 8.300781 9.699219 C 8.125 9.699219 8.148438 9.609375 8.335938 9.546875 C 8.535156 9.484375 9.214844 9.023438 9.355469 8.871094 C 9.441406 8.765625 9.554688 8.554688 9.644531 8.335938 L 9.699219 8.199219 L 15.945312 8.199219 C 20.878906 8.199219 22.199219 8.214844 22.234375 8.261719 Z M 22.234375 8.261719 "/>
<path style=" stroke:none;fill-rule:nonzero;fill:rgb(0%,0%,0%);fill-opacity:1;" d="M 9.589844 12.296875 C 9.515625 12.421875 9.449219 12.429688 9.449219 12.324219 C 9.449219 12.285156 9.425781 12.25 9.394531 12.25 C 9.355469 12.25 9.34375 12.335938 9.363281 12.519531 C 9.390625 12.773438 9.386719 12.796875 9.265625 12.820312 C 9.113281 12.859375 9.140625 12.976562 9.304688 12.976562 C 9.414062 12.976562 9.425781 12.953125 9.441406 12.710938 C 9.453125 12.433594 9.511719 12.378906 9.601562 12.550781 C 9.628906 12.605469 9.683594 12.648438 9.71875 12.648438 C 9.824219 12.648438 9.921875 12.785156 9.851562 12.824219 C 9.816406 12.84375 9.765625 12.835938 9.734375 12.804688 C 9.644531 12.714844 9.589844 12.738281 9.609375 12.859375 C 9.621094 12.949219 9.660156 12.976562 9.773438 12.976562 C 9.910156 12.976562 9.925781 12.960938 9.941406 12.789062 C 9.953125 12.640625 9.933594 12.589844 9.828125 12.519531 C 9.65625 12.410156 9.65625 12.28125 9.828125 12.320312 C 9.925781 12.34375 9.953125 12.335938 9.941406 12.289062 C 9.898438 12.175781 9.660156 12.179688 9.589844 12.296875 Z M 9.589844 12.296875 "/>
<path style=" stroke:none;fill-rule:nonzero;fill:rgb(0%,0%,0%);fill-opacity:1;" d="M 23.101562 12.886719 C 22.75 13 22.5 13.121094 22.476562 13.191406 C 22.460938 13.238281 22.410156 13.644531 22.375 14.101562 C 22.335938 14.554688 22.28125 15.058594 22.253906 15.226562 C 22.226562 15.390625 22.191406 15.605469 22.175781 15.703125 C 22.125 16.03125 21.625 16.394531 21.210938 16.410156 C 21.113281 16.414062 21.019531 16.386719 20.996094 16.34375 C 20.964844 16.304688 20.953125 16.015625 20.964844 15.671875 C 20.984375 15.074219 20.988281 15.058594 21.164062 14.765625 C 21.355469 14.453125 21.503906 14.359375 21.605469 14.480469 C 21.636719 14.519531 21.648438 14.628906 21.640625 14.726562 C 21.621094 14.878906 21.636719 14.898438 21.738281 14.898438 C 21.960938 14.898438 22.050781 14.816406 22.050781 14.59375 C 22.050781 14.441406 22.015625 14.359375 21.90625 14.246094 C 21.738281 14.085938 21.621094 14.070312 21.320312 14.175781 C 21.128906 14.238281 20.785156 14.433594 20.683594 14.535156 C 20.621094 14.605469 20.40625 14.945312 20.300781 15.148438 C 20.183594 15.375 20.113281 15.949219 20.148438 16.359375 C 20.191406 16.824219 20.496094 17.046875 20.960938 16.945312 C 21.269531 16.878906 21.828125 16.59375 21.90625 16.460938 C 21.996094 16.296875 22.085938 16.320312 22.058594 16.503906 L 22.035156 16.660156 L 22.40625 16.625 C 22.609375 16.605469 22.789062 16.578125 22.816406 16.566406 C 22.835938 16.554688 22.851562 16.464844 22.851562 16.371094 C 22.851562 16.105469 23.039062 14.90625 23.121094 14.675781 C 23.210938 14.425781 23.414062 14.253906 23.539062 14.328125 C 23.65625 14.40625 23.671875 14.625 23.601562 15.253906 C 23.570312 15.550781 23.558594 15.871094 23.578125 15.976562 C 23.644531 16.324219 24.089844 16.453125 24.550781 16.246094 C 24.675781 16.191406 24.808594 16.09375 24.859375 16.035156 L 24.941406 15.929688 L 25.039062 16.050781 C 25.136719 16.171875 25.171875 16.175781 25.644531 16.175781 L 26.144531 16.175781 L 26.441406 15.878906 C 26.75 15.574219 26.804688 15.445312 26.875 14.863281 C 26.898438 14.660156 26.929688 14.605469 27.015625 14.578125 C 27.171875 14.539062 27.203125 14.605469 27.148438 14.800781 C 27.078125 15.050781 27.089844 15.355469 27.175781 15.605469 C 27.324219 16.023438 27.546875 16.15625 28.113281 16.15625 C 28.480469 16.15625 28.519531 16.144531 28.726562 15.988281 C 28.988281 15.796875 29.203125 15.390625 29.246094 15.023438 C 29.273438 14.785156 29.28125 14.773438 29.445312 14.761719 C 29.59375 14.746094 29.609375 14.753906 29.570312 14.835938 C 29.546875 14.886719 29.519531 15.144531 29.511719 15.414062 C 29.496094 15.800781 29.511719 15.933594 29.570312 16.023438 C 29.65625 16.15625 30.121094 16.398438 30.28125 16.398438 C 30.535156 16.398438 30.859375 16.03125 30.660156 15.96875 C 30.363281 15.875 30.351562 15.859375 30.351562 15.625 C 30.351562 15.265625 30.445312 14.488281 30.578125 13.746094 C 30.644531 13.363281 30.699219 13.023438 30.699219 12.980469 C 30.699219 12.914062 30.636719 12.898438 30.300781 12.898438 C 29.929688 12.898438 29.898438 12.90625 29.878906 13.011719 C 29.84375 13.179688 29.648438 14.320312 29.648438 14.359375 C 29.648438 14.429688 29.445312 14.503906 29.351562 14.476562 C 29.296875 14.453125 29.25 14.398438 29.25 14.351562 C 29.25 14.136719 28.945312 13.71875 28.714844 13.625 C 28.515625 13.539062 28.070312 13.523438 28.023438 13.601562 C 28.011719 13.625 27.953125 13.648438 27.910156 13.648438 C 27.859375 13.648438 27.75 13.730469 27.65625 13.824219 C 27.566406 13.921875 27.476562 14 27.449219 14 C 27.429688 14 27.375 14.078125 27.328125 14.175781 C 27.191406 14.460938 26.851562 14.460938 26.851562 14.175781 C 26.851562 13.996094 26.714844 13.71875 26.578125 13.628906 C 26.429688 13.535156 25.851562 13.519531 25.683594 13.609375 C 25.429688 13.746094 25.054688 14.121094 25.019531 14.269531 C 25.003906 14.355469 24.976562 14.445312 24.953125 14.476562 C 24.855469 14.621094 24.785156 14.960938 24.785156 15.304688 C 24.78125 15.691406 24.78125 15.695312 24.621094 15.78125 C 24.460938 15.863281 24.449219 15.863281 24.351562 15.773438 C 24.234375 15.671875 24.234375 15.636719 24.351562 15.074219 C 24.445312 14.636719 24.464844 14.199219 24.398438 14.078125 C 24.25 13.800781 23.878906 13.730469 23.445312 13.898438 C 23.304688 13.960938 23.179688 13.996094 23.175781 13.988281 C 23.164062 13.980469 23.179688 13.796875 23.199219 13.574219 C 23.253906 13.066406 23.261719 12.851562 23.214844 12.855469 C 23.191406 12.855469 23.140625 12.871094 23.101562 12.886719 Z M 26.324219 13.96875 C 26.390625 14.066406 26.394531 14.113281 26.355469 14.195312 C 26.273438 14.335938 26.285156 14.503906 26.378906 14.605469 C 26.441406 14.675781 26.445312 14.726562 26.40625 14.886719 C 26.375 14.988281 26.339844 15.15625 26.324219 15.253906 C 26.285156 15.515625 26.101562 15.699219 25.875 15.699219 C 25.714844 15.699219 25.683594 15.679688 25.621094 15.523438 C 25.5 15.234375 25.535156 14.964844 25.765625 14.351562 C 25.890625 14.023438 25.941406 13.949219 26.074219 13.898438 C 26.226562 13.835938 26.238281 13.839844 26.324219 13.96875 Z M 28.691406 14.011719 C 28.773438 14.09375 28.765625 14.246094 28.675781 14.28125 C 28.558594 14.324219 28.578125 14.574219 28.703125 14.660156 C 28.804688 14.726562 28.808594 14.746094 28.75 15 C 28.71875 15.148438 28.640625 15.363281 28.585938 15.476562 C 28.484375 15.648438 28.449219 15.675781 28.269531 15.691406 C 28.085938 15.703125 28.058594 15.691406 28.003906 15.554688 C 27.878906 15.265625 28.03125 14.265625 28.226562 14.050781 C 28.324219 13.941406 28.59375 13.914062 28.691406 14.011719 Z M 28.691406 14.011719 "/>
<path style=" stroke:none;fill-rule:nonzero;fill:rgb(0%,0%,0%);fill-opacity:1;" d="M 18.976562 13.476562 C 18.949219 13.484375 18.824219 13.519531 18.703125 13.550781 C 18.574219 13.585938 18.410156 13.679688 18.285156 13.804688 C 18.171875 13.910156 18.066406 14 18.039062 14 C 17.964844 14 17.839844 14.558594 17.871094 14.753906 C 17.921875 15.074219 18.003906 15.195312 18.320312 15.410156 C 18.738281 15.691406 18.945312 15.890625 19.054688 16.125 C 19.175781 16.390625 19.175781 16.570312 19.039062 16.804688 C 18.910156 17.046875 18.785156 17.125 18.515625 17.171875 C 18.054688 17.25 17.804688 16.875 18.078125 16.515625 C 18.15625 16.421875 18.296875 16.289062 18.390625 16.234375 L 18.566406 16.128906 L 18.449219 16.039062 C 18.296875 15.914062 18.171875 15.929688 17.828125 16.113281 C 17.546875 16.269531 17.53125 16.289062 17.433594 16.589844 C 17.34375 16.875 17.339844 16.933594 17.398438 17.164062 C 17.433594 17.308594 17.484375 17.449219 17.511719 17.484375 C 17.566406 17.554688 18.085938 17.714844 18.144531 17.679688 C 18.164062 17.664062 18.351562 17.625 18.554688 17.59375 C 18.945312 17.535156 19.136719 17.460938 19.253906 17.320312 C 19.289062 17.273438 19.40625 17.183594 19.511719 17.121094 C 19.609375 17.054688 19.710938 16.953125 19.730469 16.890625 C 19.75 16.828125 19.808594 16.714844 19.863281 16.644531 C 20.015625 16.433594 20.039062 15.878906 19.910156 15.621094 C 19.734375 15.273438 19.335938 14.949219 18.941406 14.828125 C 18.828125 14.796875 18.550781 14.359375 18.550781 14.21875 C 18.550781 14.070312 18.800781 13.769531 18.980469 13.703125 C 19.191406 13.628906 19.230469 13.636719 19.351562 13.761719 C 19.46875 13.890625 19.480469 14.101562 19.375 14.296875 C 19.285156 14.46875 19.316406 14.503906 19.519531 14.464844 C 19.71875 14.425781 19.800781 14.359375 19.886719 14.164062 C 19.964844 13.964844 19.90625 13.625 19.765625 13.523438 C 19.683594 13.460938 19.109375 13.425781 18.976562 13.476562 Z M 18.976562 13.476562 "/>
<path style=" stroke:none;fill-rule:nonzero;fill:rgb(0%,0%,0%);fill-opacity:1;" d="M 15.050781 15.84375 C 14.785156 15.898438 14.550781 16.003906 14.550781 16.070312 C 14.550781 16.113281 14.445312 16.136719 14.230469 16.140625 C 13.824219 16.144531 13.585938 16.265625 13.328125 16.59375 C 13.121094 16.859375 13.078125 16.949219 12.898438 17.539062 C 12.816406 17.816406 12.796875 17.976562 12.816406 18.199219 C 12.839844 18.484375 12.835938 18.503906 12.695312 18.605469 C 12.390625 18.820312 12.269531 18.625 12.386719 18.101562 C 12.425781 17.921875 12.460938 17.589844 12.464844 17.363281 C 12.476562 17 12.464844 16.945312 12.355469 16.828125 C 12.253906 16.726562 12.183594 16.699219 11.988281 16.699219 C 11.75 16.699219 11.589844 16.769531 11.363281 16.964844 C 11.273438 17.046875 11.253906 17.046875 11.214844 16.984375 C 11.179688 16.925781 11.128906 16.925781 10.851562 16.988281 C 10.671875 17.03125 10.5 17.070312 10.46875 17.074219 C 10.433594 17.085938 10.398438 17.304688 10.375 17.660156 C 10.34375 18.195312 10.226562 19.074219 10.171875 19.160156 C 10.15625 19.183594 10.074219 19.234375 9.996094 19.273438 C 9.886719 19.335938 9.824219 19.339844 9.75 19.300781 C 9.640625 19.238281 9.628906 19.101562 9.703125 18.648438 C 9.769531 18.25 9.894531 17.230469 9.875 17.210938 C 9.863281 17.199219 9.738281 17.21875 9.59375 17.25 C 9.445312 17.28125 9.265625 17.320312 9.191406 17.335938 C 9.070312 17.359375 9.050781 17.386719 9.046875 17.546875 C 9.046875 17.644531 9.035156 17.769531 9.03125 17.824219 C 9.019531 17.878906 8.984375 18.230469 8.953125 18.601562 C 8.894531 19.273438 8.894531 19.273438 8.726562 19.433594 C 8.535156 19.613281 8.445312 19.640625 8.351562 19.523438 C 8.28125 19.441406 8.300781 19.164062 8.414062 18.425781 C 8.460938 18.148438 8.519531 17.613281 8.550781 17.238281 C 8.578125 16.859375 8.613281 16.519531 8.628906 16.476562 C 8.664062 16.390625 8.523438 16.363281 8.476562 16.449219 C 8.460938 16.476562 8.390625 16.5 8.324219 16.5 C 8.261719 16.5 8.191406 16.519531 8.175781 16.550781 C 8.160156 16.574219 8.089844 16.601562 8.019531 16.601562 C 7.855469 16.601562 7.816406 16.726562 7.75 17.414062 C 7.609375 18.886719 7.511719 19.554688 7.414062 19.660156 C 7.320312 19.765625 6.976562 19.785156 6.933594 19.683594 C 6.898438 19.589844 6.960938 19.085938 7.121094 18.199219 C 7.160156 17.964844 7.210938 17.511719 7.230469 17.191406 L 7.265625 16.605469 L 7.046875 16.65625 C 6.449219 16.789062 6.449219 16.789062 6.449219 16.980469 C 6.449219 17.074219 6.429688 17.25 6.398438 17.363281 C 6.375 17.480469 6.339844 17.769531 6.324219 18.011719 C 6.296875 18.425781 6.285156 18.445312 6.144531 18.5 C 5.941406 18.585938 5.863281 18.539062 5.828125 18.289062 C 5.78125 17.980469 5.519531 17.800781 5.128906 17.800781 C 4.761719 17.800781 4.226562 18.058594 4.074219 18.308594 C 3.746094 18.878906 3.628906 19.445312 3.769531 19.808594 C 3.941406 20.226562 4.214844 20.398438 4.695312 20.394531 C 5.335938 20.390625 5.75 19.984375 5.851562 19.265625 C 5.910156 18.839844 5.921875 18.816406 6.101562 18.789062 C 6.238281 18.773438 6.246094 18.78125 6.175781 19.449219 C 6.109375 20.113281 6.296875 20.339844 6.851562 20.28125 C 7.113281 20.246094 7.273438 20.175781 7.46875 19.988281 C 7.59375 19.875 7.636719 19.875 7.675781 19.996094 C 7.691406 20.046875 7.769531 20.113281 7.855469 20.148438 C 8.050781 20.234375 8.335938 20.144531 8.648438 19.910156 C 8.875 19.738281 8.894531 19.738281 9.183594 19.855469 C 9.316406 19.910156 9.394531 19.910156 9.609375 19.855469 C 9.753906 19.816406 9.914062 19.753906 9.960938 19.710938 C 10.035156 19.648438 10.058594 19.648438 10.125 19.699219 C 10.191406 19.753906 10.253906 19.753906 10.488281 19.699219 C 10.644531 19.664062 10.800781 19.613281 10.828125 19.589844 C 10.886719 19.550781 10.941406 19.289062 10.976562 18.898438 C 10.984375 18.804688 11.035156 18.46875 11.085938 18.15625 C 11.164062 17.65625 11.195312 17.566406 11.335938 17.40625 C 11.464844 17.253906 11.503906 17.234375 11.585938 17.28125 C 11.679688 17.339844 11.683594 17.421875 11.644531 18.554688 C 11.621094 19.21875 11.664062 19.300781 12.085938 19.300781 C 12.375 19.300781 12.535156 19.238281 12.640625 19.09375 C 12.761719 18.925781 13.003906 18.785156 13.066406 18.84375 C 13.09375 18.875 13.261719 18.898438 13.433594 18.898438 C 13.609375 18.898438 13.75 18.910156 13.75 18.921875 C 13.75 18.929688 13.671875 19.019531 13.574219 19.113281 C 13.480469 19.210938 13.394531 19.328125 13.394531 19.386719 C 13.390625 19.433594 13.378906 19.53125 13.375 19.601562 C 13.363281 19.671875 13.390625 19.796875 13.425781 19.886719 C 13.539062 20.160156 14.003906 20.199219 14.328125 19.96875 C 14.40625 19.914062 14.519531 19.835938 14.59375 19.789062 C 14.730469 19.695312 14.945312 19.15625 14.949219 18.886719 C 14.949219 18.804688 14.96875 18.648438 14.996094 18.535156 C 15.054688 18.253906 15.136719 17.679688 15.226562 16.800781 C 15.308594 15.984375 15.316406 15.796875 15.265625 15.804688 C 15.238281 15.808594 15.144531 15.828125 15.050781 15.84375 Z M 14.414062 16.75 C 14.410156 16.929688 14.378906 17.296875 14.34375 17.566406 C 14.289062 18.035156 14.285156 18.054688 14.109375 18.199219 C 13.761719 18.488281 13.625 18.371094 13.625 17.78125 C 13.628906 17.105469 13.984375 16.375 14.300781 16.410156 C 14.421875 16.425781 14.425781 16.433594 14.414062 16.75 Z M 5.351562 18.148438 C 5.46875 18.269531 5.476562 18.316406 5.375 18.398438 C 5.335938 18.433594 5.300781 18.523438 5.300781 18.601562 C 5.300781 18.675781 5.335938 18.765625 5.375 18.800781 C 5.554688 18.949219 5.375 19.621094 5.09375 19.839844 C 4.976562 19.933594 4.925781 19.949219 4.808594 19.914062 C 4.734375 19.890625 4.648438 19.816406 4.621094 19.753906 C 4.550781 19.625 4.578125 18.851562 4.648438 18.78125 C 4.679688 18.75 4.699219 18.695312 4.699219 18.65625 C 4.699219 18.550781 5.089844 18.050781 5.175781 18.050781 C 5.214844 18.050781 5.296875 18.09375 5.351562 18.148438 Z M 14.125 18.734375 C 13.933594 18.898438 13.898438 18.835938 14.078125 18.644531 C 14.171875 18.550781 14.230469 18.519531 14.246094 18.554688 C 14.253906 18.589844 14.199219 18.671875 14.125 18.734375 Z M 14.199219 18.988281 C 14.199219 19.171875 14.09375 19.421875 13.96875 19.554688 C 13.863281 19.664062 13.816406 19.683594 13.746094 19.644531 C 13.613281 19.574219 13.625 19.425781 13.785156 19.210938 C 14.011719 18.898438 14.199219 18.800781 14.199219 18.988281 Z M 14.199219 18.988281 "/>
<path style=" stroke:none;fill-rule:nonzero;fill:rgb(0%,0%,0%);fill-opacity:1;" d="M 9.371094 16.203125 C 9.214844 16.285156 9.089844 16.523438 9.128906 16.675781 C 9.164062 16.824219 9.371094 17 9.511719 17 C 9.839844 17 10.085938 16.613281 9.945312 16.320312 C 9.886719 16.199219 9.839844 16.175781 9.675781 16.164062 C 9.566406 16.160156 9.429688 16.179688 9.371094 16.203125 Z M 9.371094 16.203125 "/>
<path style=" stroke:none;fill-rule:nonzero;fill:rgb(0%,0%,0%);fill-opacity:1;" d="M 1.269531 16.601562 C 1.101562 16.648438 0.90625 16.726562 0.835938 16.769531 C 0.628906 16.910156 0.449219 17.21875 0.449219 17.449219 C 0.449219 17.769531 0.640625 18.050781 0.855469 18.050781 C 0.988281 18.050781 0.988281 18.046875 0.964844 17.785156 C 0.929688 17.378906 1.011719 17.148438 1.261719 16.976562 C 1.578125 16.738281 1.695312 16.703125 2.113281 16.699219 C 2.566406 16.699219 2.71875 16.761719 2.914062 17.019531 C 3.085938 17.238281 3.089844 17.476562 2.929688 17.761719 C 2.808594 17.980469 2.675781 18.078125 2.449219 18.109375 C 2.304688 18.125 2.308594 18.144531 2.371094 17.433594 L 2.410156 17 L 2.003906 17 C 1.625 17 1.601562 17.003906 1.578125 17.109375 C 1.503906 17.523438 1.449219 17.933594 1.421875 18.320312 C 1.398438 18.558594 1.335938 19.054688 1.273438 19.421875 C 1.191406 19.90625 1.175781 20.089844 1.21875 20.128906 C 1.25 20.164062 1.414062 20.199219 1.589844 20.210938 C 1.839844 20.226562 1.914062 20.214844 1.949219 20.15625 C 1.988281 20.074219 2.054688 19.710938 2.148438 19.050781 C 2.234375 18.46875 2.25 18.410156 2.335938 18.378906 C 2.480469 18.324219 2.746094 18.445312 2.78125 18.585938 C 2.824219 18.75 2.769531 19.441406 2.699219 19.621094 C 2.675781 19.695312 2.648438 19.855469 2.648438 19.976562 C 2.648438 20.15625 2.675781 20.210938 2.808594 20.324219 C 2.953125 20.449219 3 20.460938 3.265625 20.433594 C 3.613281 20.40625 3.660156 20.371094 3.511719 20.253906 C 3.363281 20.148438 3.359375 19.996094 3.476562 19.484375 C 3.523438 19.25 3.554688 18.976562 3.539062 18.796875 C 3.519531 18.53125 3.5 18.480469 3.351562 18.355469 L 3.179688 18.214844 L 3.386719 18.019531 C 3.539062 17.871094 3.59375 17.773438 3.621094 17.601562 C 3.660156 17.300781 3.609375 17.15625 3.390625 16.910156 C 3.230469 16.730469 3.144531 16.691406 2.804688 16.601562 C 2.316406 16.476562 1.699219 16.476562 1.269531 16.601562 Z M 1.269531 16.601562 "/>
<path style=" stroke:none;fill-rule:nonzero;fill:rgb(0%,0%,0%);fill-opacity:1;" d="M 25.398438 18.980469 C 25.054688 19.019531 24.539062 19.09375 24.25 19.15625 C 23.960938 19.214844 23.523438 19.289062 23.273438 19.324219 C 22.765625 19.398438 22.601562 19.441406 22 19.613281 C 21.765625 19.683594 21.476562 19.753906 21.351562 19.773438 C 21.109375 19.808594 20.789062 19.890625 20.625 19.949219 C 20.214844 20.101562 19.976562 20.171875 19.65625 20.234375 C 19.453125 20.273438 19.050781 20.386719 18.753906 20.480469 C 18.464844 20.578125 18.078125 20.683594 17.898438 20.726562 C 17.71875 20.761719 17.421875 20.84375 17.226562 20.914062 C 17.035156 20.980469 16.75 21.054688 16.601562 21.074219 C 16.449219 21.09375 16.148438 21.175781 15.925781 21.25 C 15.449219 21.414062 15.226562 21.476562 14.824219 21.550781 C 14.660156 21.578125 14.425781 21.636719 14.300781 21.675781 C 13.59375 21.878906 13.339844 21.945312 13 22 C 12.796875 22.035156 12.320312 22.140625 11.949219 22.230469 C 11.578125 22.320312 11.058594 22.414062 10.800781 22.449219 C 10.539062 22.484375 10.089844 22.550781 9.800781 22.605469 C 8.824219 22.773438 8.230469 22.855469 7.589844 22.886719 C 7.234375 22.898438 6.949219 22.933594 6.949219 22.960938 C 6.949219 23.074219 8.238281 24.429688 8.613281 24.714844 C 8.714844 24.789062 8.871094 24.921875 8.960938 25 C 9.050781 25.085938 9.144531 25.148438 9.179688 25.148438 C 9.210938 25.148438 9.328125 25.238281 9.449219 25.351562 C 9.570312 25.460938 9.691406 25.550781 9.71875 25.550781 C 9.75 25.550781 9.910156 25.640625 10.074219 25.75 C 10.234375 25.859375 10.429688 25.960938 10.503906 25.976562 C 10.578125 25.996094 10.671875 26.039062 10.703125 26.078125 C 10.769531 26.15625 11.179688 26.359375 11.398438 26.421875 C 11.46875 26.441406 11.613281 26.5 11.726562 26.550781 C 12.246094 26.785156 12.40625 26.851562 12.488281 26.851562 C 12.539062 26.851562 12.75 26.894531 12.953125 26.953125 C 14.203125 27.304688 14.800781 27.371094 16.375 27.335938 C 17.5 27.308594 17.539062 27.304688 18.226562 27.125 C 18.609375 27.019531 19.058594 26.910156 19.226562 26.878906 C 19.523438 26.820312 19.761719 26.730469 20.109375 26.546875 C 20.210938 26.496094 20.335938 26.449219 20.386719 26.445312 C 20.433594 26.445312 20.589844 26.386719 20.734375 26.308594 C 20.875 26.234375 21.160156 26.089844 21.363281 25.984375 C 21.566406 25.878906 21.808594 25.738281 21.898438 25.675781 C 21.996094 25.605469 22.09375 25.550781 22.128906 25.550781 C 22.160156 25.550781 22.238281 25.496094 22.304688 25.425781 C 22.371094 25.355469 22.496094 25.261719 22.574219 25.214844 C 22.765625 25.113281 23.328125 24.65625 23.679688 24.308594 C 23.824219 24.171875 23.96875 24.050781 24 24.050781 C 24.023438 24.050781 24.050781 24.019531 24.050781 23.980469 C 24.050781 23.941406 24.164062 23.816406 24.300781 23.699219 C 24.441406 23.585938 24.550781 23.464844 24.550781 23.429688 C 24.550781 23.394531 24.628906 23.289062 24.730469 23.195312 C 24.828125 23.105469 24.984375 22.910156 25.074219 22.773438 C 25.160156 22.636719 25.285156 22.480469 25.34375 22.429688 C 25.398438 22.375 25.449219 22.304688 25.449219 22.273438 C 25.449219 22.238281 25.511719 22.125 25.578125 22.019531 C 25.699219 21.84375 25.800781 21.664062 26.234375 20.855469 C 26.296875 20.730469 26.351562 20.605469 26.351562 20.566406 C 26.351562 20.53125 26.40625 20.390625 26.46875 20.261719 C 26.679688 19.851562 26.738281 19.683594 26.820312 19.316406 C 26.863281 19.113281 26.898438 18.945312 26.898438 18.929688 C 26.898438 18.878906 26.050781 18.910156 25.398438 18.980469 Z M 25.398438 18.980469 "/>
<path style=" stroke:none;fill-rule:nonzero;fill:rgb(0%,0%,0%);fill-opacity:1;" d="M 27.21875 20.335938 C 27.199219 20.414062 27.085938 20.664062 26.964844 20.894531 C 26.851562 21.125 26.75 21.351562 26.75 21.386719 C 26.75 21.425781 26.703125 21.519531 26.648438 21.601562 C 26.59375 21.683594 26.511719 21.808594 26.453125 21.890625 C 26.40625 21.964844 26.34375 22.085938 26.324219 22.148438 C 26.304688 22.21875 26.226562 22.34375 26.144531 22.425781 C 26.066406 22.511719 25.960938 22.65625 25.914062 22.753906 C 25.800781 22.976562 25.535156 23.34375 25.269531 23.644531 C 25.15625 23.769531 25.039062 23.925781 25.003906 23.984375 C 24.976562 24.046875 24.886719 24.136719 24.804688 24.179688 C 24.730469 24.226562 24.625 24.328125 24.574219 24.410156 C 24.53125 24.496094 24.414062 24.605469 24.328125 24.65625 C 24.238281 24.703125 24.140625 24.804688 24.105469 24.871094 C 24.070312 24.933594 23.953125 25.035156 23.851562 25.09375 C 23.746094 25.15625 23.648438 25.230469 23.636719 25.269531 C 23.605469 25.339844 22.878906 25.875 22.628906 26.011719 C 22.539062 26.054688 22.394531 26.160156 22.304688 26.246094 C 22.214844 26.328125 22.113281 26.398438 22.078125 26.398438 C 22.011719 26.398438 21.558594 26.636719 21.40625 26.753906 C 21.339844 26.808594 21.253906 26.851562 21.21875 26.851562 C 21.179688 26.851562 20.941406 26.949219 20.683594 27.070312 C 20.433594 27.191406 20.125 27.316406 20 27.351562 C 19.875 27.378906 19.628906 27.453125 19.449219 27.519531 C 18.769531 27.761719 18.789062 27.753906 17.179688 27.976562 C 16.550781 28.058594 15.335938 28.074219 14.855469 28 C 14.484375 27.941406 14.066406 27.878906 13.488281 27.800781 C 13.28125 27.769531 12.898438 27.671875 12.640625 27.578125 C 12.386719 27.488281 12.050781 27.386719 11.898438 27.351562 C 11.75 27.316406 11.5 27.21875 11.351562 27.140625 C 11.199219 27.058594 10.976562 26.960938 10.851562 26.914062 C 10.726562 26.875 10.535156 26.773438 10.425781 26.699219 C 10.316406 26.625 10.074219 26.488281 9.890625 26.398438 C 9.703125 26.316406 9.515625 26.195312 9.46875 26.144531 C 9.421875 26.089844 9.285156 26.003906 9.164062 25.949219 C 9.046875 25.898438 8.949219 25.828125 8.949219 25.804688 C 8.949219 25.773438 8.855469 25.703125 8.738281 25.644531 C 8.621094 25.585938 8.503906 25.503906 8.476562 25.46875 C 8.449219 25.433594 8.324219 25.324219 8.199219 25.226562 C 7.769531 24.875 7.011719 24.105469 6.644531 23.648438 C 6.523438 23.5 6.394531 23.34375 6.359375 23.308594 C 6.324219 23.269531 6.265625 23.175781 6.226562 23.09375 L 6.144531 22.949219 L 5.261719 22.949219 C 3.714844 22.949219 2.683594 22.851562 1.648438 22.605469 C 1.554688 22.578125 1.433594 22.546875 1.390625 22.523438 C 1.339844 22.503906 1.300781 22.503906 1.300781 22.519531 C 1.300781 22.609375 1.515625 23.183594 1.574219 23.25 C 1.679688 23.371094 1.949219 23.851562 1.949219 23.914062 C 1.949219 23.949219 2.015625 24.054688 2.089844 24.148438 C 2.171875 24.246094 2.269531 24.40625 2.320312 24.5 C 2.363281 24.59375 2.488281 24.789062 2.601562 24.933594 C 2.703125 25.078125 2.828125 25.261719 2.871094 25.335938 C 2.910156 25.410156 3.011719 25.539062 3.09375 25.621094 C 3.179688 25.703125 3.25 25.789062 3.25 25.816406 C 3.25 25.839844 3.335938 25.960938 3.441406 26.078125 C 3.539062 26.195312 3.726562 26.410156 3.851562 26.550781 C 4.386719 27.171875 5.691406 28.390625 6.066406 28.625 C 6.15625 28.679688 6.265625 28.769531 6.308594 28.828125 C 6.359375 28.890625 6.46875 28.976562 6.558594 29.019531 C 6.648438 29.066406 6.824219 29.179688 6.949219 29.28125 C 7.074219 29.375 7.253906 29.488281 7.351562 29.539062 C 7.445312 29.585938 7.605469 29.683594 7.699219 29.753906 C 7.796875 29.828125 7.988281 29.941406 8.125 30 C 8.265625 30.058594 8.445312 30.160156 8.523438 30.226562 C 8.609375 30.285156 8.808594 30.386719 8.976562 30.445312 C 9.140625 30.503906 9.34375 30.601562 9.433594 30.65625 C 9.519531 30.710938 9.710938 30.785156 9.859375 30.828125 C 10.003906 30.871094 10.226562 30.949219 10.351562 31.011719 C 10.796875 31.210938 10.878906 31.238281 11.175781 31.300781 C 11.339844 31.328125 11.664062 31.421875 11.898438 31.5 C 12.386719 31.660156 12.691406 31.726562 13.324219 31.800781 C 13.574219 31.824219 13.953125 31.878906 14.175781 31.910156 C 14.699219 31.988281 17.191406 31.996094 17.726562 31.914062 C 17.945312 31.878906 18.394531 31.820312 18.726562 31.773438 C 19.054688 31.734375 19.410156 31.675781 19.515625 31.648438 C 19.921875 31.539062 20.03125 31.511719 20.15625 31.460938 C 20.226562 31.429688 20.441406 31.371094 20.628906 31.324219 C 20.820312 31.28125 21.226562 31.140625 21.53125 31.019531 C 21.835938 30.898438 22.125 30.800781 22.171875 30.800781 C 22.21875 30.800781 22.320312 30.761719 22.390625 30.710938 C 22.464844 30.660156 22.625 30.578125 22.75 30.53125 C 23.101562 30.390625 23.15625 30.359375 23.449219 30.175781 C 23.601562 30.085938 23.785156 29.988281 23.855469 29.976562 C 23.929688 29.960938 24.039062 29.890625 24.101562 29.820312 C 24.164062 29.753906 24.234375 29.699219 24.253906 29.699219 C 24.324219 29.699219 24.898438 29.351562 24.988281 29.25 C 25.039062 29.195312 25.160156 29.121094 25.261719 29.078125 C 25.359375 29.035156 25.476562 28.960938 25.511719 28.910156 C 25.546875 28.859375 25.738281 28.699219 25.941406 28.554688 C 26.136719 28.410156 26.300781 28.273438 26.300781 28.25 C 26.300781 28.226562 26.34375 28.195312 26.398438 28.175781 C 26.503906 28.140625 27.828125 26.828125 28.179688 26.414062 C 28.289062 26.285156 28.480469 26.046875 28.59375 25.890625 C 28.714844 25.730469 28.835938 25.601562 28.859375 25.601562 C 28.886719 25.601562 28.949219 25.5 29.003906 25.375 C 29.058594 25.25 29.144531 25.128906 29.191406 25.105469 C 29.238281 25.078125 29.308594 24.996094 29.351562 24.914062 C 29.390625 24.839844 29.53125 24.613281 29.65625 24.425781 C 29.785156 24.230469 29.910156 24.015625 29.925781 23.941406 C 29.945312 23.871094 30 23.769531 30.054688 23.71875 C 30.105469 23.675781 30.148438 23.613281 30.148438 23.585938 C 30.148438 23.558594 30.195312 23.480469 30.246094 23.40625 C 30.296875 23.335938 30.363281 23.179688 30.394531 23.066406 C 30.425781 22.949219 30.476562 22.839844 30.5 22.824219 C 30.566406 22.785156 30.683594 22.511719 30.726562 22.300781 C 30.746094 22.203125 30.804688 22.066406 30.855469 21.988281 C 30.910156 21.921875 30.949219 21.835938 30.949219 21.804688 C 30.949219 21.773438 30.996094 21.675781 31.050781 21.574219 C 31.234375 21.246094 31.210938 21.214844 30.714844 21.234375 C 30.085938 21.265625 29.308594 21.335938 29.050781 21.394531 C 28.425781 21.539062 28.128906 21.644531 27.910156 21.800781 C 27.78125 21.894531 27.601562 22.019531 27.515625 22.085938 L 27.351562 22.195312 L 27.351562 21.199219 C 27.351562 20.578125 27.328125 20.199219 27.300781 20.199219 C 27.273438 20.199219 27.234375 20.261719 27.21875 20.335938 Z M 6.980469 26.320312 C 7.210938 26.539062 7.246094 26.660156 7.085938 26.691406 C 7.035156 26.699219 6.980469 26.660156 6.953125 26.585938 C 6.910156 26.476562 6.648438 26.253906 6.648438 26.328125 C 6.648438 26.351562 6.710938 26.484375 6.78125 26.636719 C 6.890625 26.851562 6.898438 26.914062 6.851562 26.976562 C 6.703125 27.148438 6.285156 26.964844 6.210938 26.691406 C 6.164062 26.519531 6.199219 26.414062 6.289062 26.46875 C 6.316406 26.484375 6.351562 26.558594 6.363281 26.640625 C 6.394531 26.773438 6.625 26.941406 6.691406 26.875 C 6.726562 26.84375 6.71875 26.835938 6.480469 26.5 C 6.339844 26.304688 6.339844 26.296875 6.425781 26.199219 C 6.566406 26.046875 6.726562 26.074219 6.980469 26.320312 Z M 25.691406 26.296875 C 25.835938 26.429688 25.898438 26.53125 25.898438 26.621094 C 25.898438 26.789062 25.84375 26.785156 25.703125 26.59375 C 25.539062 26.375 25.386719 26.316406 25.230469 26.414062 C 25.078125 26.515625 25.105469 26.648438 25.296875 26.816406 C 25.464844 26.953125 25.515625 27.074219 25.429688 27.148438 C 25.375 27.191406 25.316406 27.148438 25.160156 26.976562 C 24.960938 26.75 24.820312 26.699219 24.710938 26.808594 C 24.605469 26.914062 24.644531 27.078125 24.820312 27.261719 C 24.949219 27.390625 24.980469 27.449219 24.933594 27.496094 C 24.90625 27.523438 24.863281 27.550781 24.839844 27.550781 C 24.789062 27.550781 24.550781 27.285156 24.550781 27.226562 C 24.550781 27.199219 24.503906 27.121094 24.449219 27.050781 C 24.335938 26.898438 24.324219 26.851562 24.421875 26.851562 C 24.460938 26.851562 24.523438 26.789062 24.558594 26.710938 C 24.605469 26.621094 24.683594 26.558594 24.808594 26.53125 C 24.921875 26.503906 25 26.449219 25.015625 26.394531 C 25.039062 26.304688 25.328125 26.101562 25.425781 26.101562 C 25.453125 26.105469 25.570312 26.191406 25.691406 26.296875 Z M 7.691406 26.84375 C 7.871094 26.933594 8.03125 27.15625 7.964844 27.21875 C 7.890625 27.296875 7.765625 27.234375 7.714844 27.101562 C 7.664062 26.964844 7.636719 26.949219 7.453125 26.949219 C 7.28125 26.949219 7.25 26.964844 7.21875 27.078125 C 7.171875 27.269531 7.273438 27.445312 7.453125 27.484375 C 7.621094 27.515625 7.695312 27.625 7.609375 27.710938 C 7.53125 27.789062 7.351562 27.703125 7.164062 27.503906 C 7.039062 27.371094 7 27.28125 7 27.136719 C 7 26.980469 7.023438 26.933594 7.164062 26.851562 C 7.363281 26.726562 7.453125 26.726562 7.691406 26.84375 Z M 8.429688 26.90625 C 8.445312 26.933594 8.414062 27.023438 8.355469 27.105469 C 8.226562 27.28125 8.226562 27.300781 8.355469 27.300781 C 8.484375 27.300781 8.75 27.589844 8.75 27.734375 C 8.75 27.839844 8.59375 28.171875 8.496094 28.273438 C 8.464844 28.300781 8.429688 28.300781 8.398438 28.269531 C 8.363281 28.234375 8.386719 28.15625 8.449219 28.023438 C 8.566406 27.804688 8.550781 27.613281 8.414062 27.511719 C 8.273438 27.40625 8.179688 27.445312 8.011719 27.675781 C 7.820312 27.933594 7.671875 27.980469 7.726562 27.761719 C 7.738281 27.683594 7.824219 27.546875 7.90625 27.449219 C 7.984375 27.355469 8.089844 27.195312 8.128906 27.101562 C 8.234375 26.863281 8.355469 26.789062 8.429688 26.90625 Z M 24.386719 27.210938 C 24.53125 27.308594 24.550781 27.355469 24.550781 27.539062 C 24.550781 27.738281 24.535156 27.761719 24.316406 27.898438 C 24.023438 28.085938 23.855469 28.089844 23.699219 27.925781 C 23.609375 27.828125 23.578125 27.746094 23.585938 27.601562 C 23.59375 27.355469 23.621094 27.320312 23.820312 27.195312 C 24.023438 27.070312 24.179688 27.074219 24.386719 27.210938 Z M 23.34375 27.664062 C 23.410156 27.75 23.371094 27.800781 23.230469 27.800781 C 22.964844 27.800781 22.796875 28.105469 22.976562 28.25 C 23.078125 28.335938 23.285156 28.328125 23.394531 28.230469 C 23.503906 28.128906 23.648438 28.125 23.648438 28.21875 C 23.648438 28.316406 23.414062 28.480469 23.210938 28.523438 C 22.898438 28.589844 22.695312 28.320312 22.773438 27.945312 C 22.800781 27.824219 22.859375 27.769531 23.019531 27.695312 C 23.265625 27.585938 23.273438 27.578125 23.34375 27.664062 Z M 9.433594 27.875 C 9.496094 27.914062 9.589844 28.023438 9.644531 28.121094 C 9.730469 28.253906 9.738281 28.308594 9.695312 28.433594 C 9.558594 28.835938 8.835938 28.753906 8.730469 28.324219 C 8.695312 28.179688 8.804688 27.929688 8.933594 27.855469 C 9.066406 27.78125 9.308594 27.789062 9.433594 27.875 Z M 11.164062 28.40625 C 11.160156 28.5 11.085938 28.71875 10.996094 28.898438 C 10.863281 29.164062 10.851562 29.238281 10.898438 29.316406 C 10.945312 29.390625 10.945312 29.425781 10.898438 29.46875 C 10.855469 29.511719 10.820312 29.496094 10.75 29.414062 C 10.664062 29.308594 10.664062 29.28125 10.726562 29.046875 C 10.765625 28.90625 10.828125 28.71875 10.871094 28.628906 C 10.910156 28.546875 10.96875 28.410156 10.996094 28.335938 C 11.070312 28.144531 11.179688 28.191406 11.164062 28.40625 Z M 22.273438 28.300781 C 22.273438 28.351562 22.210938 28.386719 22.074219 28.398438 C 21.683594 28.453125 21.613281 28.613281 21.988281 28.601562 C 22.394531 28.578125 22.398438 28.578125 22.398438 28.773438 C 22.398438 29 22.238281 29.109375 21.945312 29.089844 C 21.675781 29.070312 21.613281 28.949219 21.875 28.949219 C 22.054688 28.949219 22.300781 28.828125 22.300781 28.738281 C 22.300781 28.710938 22.175781 28.703125 21.988281 28.726562 C 21.75 28.75 21.648438 28.738281 21.574219 28.683594 C 21.484375 28.613281 21.484375 28.601562 21.550781 28.476562 C 21.589844 28.398438 21.679688 28.308594 21.75 28.269531 C 21.914062 28.179688 22.273438 28.199219 22.273438 28.300781 Z M 10.523438 28.40625 C 10.675781 28.539062 10.699219 28.589844 10.699219 28.785156 C 10.699219 29.070312 10.609375 29.144531 10.289062 29.148438 C 9.988281 29.148438 9.910156 29.121094 9.824219 28.945312 C 9.714844 28.734375 9.734375 28.578125 9.894531 28.40625 C 10.089844 28.199219 10.285156 28.199219 10.523438 28.40625 Z M 21.425781 28.699219 C 21.480469 28.761719 21.5 28.835938 21.480469 28.914062 C 21.453125 29.015625 21.398438 29.046875 21.148438 29.101562 C 20.976562 29.140625 20.855469 29.191406 20.863281 29.21875 C 20.894531 29.308594 21.09375 29.316406 21.226562 29.230469 C 21.355469 29.144531 21.5 29.125 21.5 29.195312 C 21.5 29.214844 21.441406 29.296875 21.371094 29.371094 C 21.183594 29.550781 20.863281 29.554688 20.695312 29.371094 L 20.574219 29.238281 L 20.550781 29.378906 C 20.515625 29.578125 20.191406 29.820312 19.96875 29.816406 C 19.800781 29.808594 19.796875 29.816406 19.824219 29.941406 C 19.886719 30.164062 19.878906 30.21875 19.796875 30.238281 C 19.730469 30.25 19.699219 30.183594 19.648438 29.941406 C 19.523438 29.304688 19.523438 29.253906 19.675781 29.101562 C 19.75 29.023438 19.871094 28.949219 19.941406 28.933594 C 20.074219 28.910156 20.449219 29.039062 20.449219 29.109375 C 20.449219 29.136719 20.484375 29.148438 20.523438 29.148438 C 20.570312 29.148438 20.601562 29.105469 20.601562 29.035156 C 20.605469 28.714844 20.730469 28.609375 21.128906 28.605469 C 21.273438 28.601562 21.359375 28.628906 21.425781 28.699219 Z M 22.800781 28.671875 C 22.800781 28.710938 22.773438 28.761719 22.746094 28.78125 C 22.675781 28.820312 22.578125 28.726562 22.621094 28.65625 C 22.671875 28.574219 22.800781 28.589844 22.800781 28.671875 Z M 12.023438 28.933594 C 12.144531 28.960938 12.230469 29.003906 12.238281 29.054688 C 12.253906 29.125 12.21875 29.136719 12.03125 29.113281 C 11.765625 29.085938 11.648438 29.148438 11.648438 29.335938 C 11.648438 29.464844 11.570312 29.648438 11.511719 29.648438 C 11.371094 29.644531 11.355469 29.558594 11.445312 29.320312 C 11.644531 28.789062 11.640625 28.796875 11.734375 28.84375 C 11.785156 28.871094 11.914062 28.910156 12.023438 28.933594 Z M 13.605469 28.960938 C 13.609375 28.996094 13.609375 29.046875 13.605469 29.070312 C 13.480469 29.75 13.460938 29.925781 13.511719 29.984375 C 13.59375 30.089844 13.488281 30.164062 13.375 30.078125 C 13.289062 30.019531 13.285156 29.984375 13.339844 29.671875 C 13.371094 29.480469 13.410156 29.230469 13.425781 29.109375 C 13.445312 28.980469 13.484375 28.898438 13.53125 28.898438 C 13.570312 28.898438 13.605469 28.929688 13.605469 28.960938 Z M 13.980469 29.136719 C 13.914062 29.488281 13.890625 30.039062 13.945312 30.070312 C 14.011719 30.113281 13.96875 30.199219 13.886719 30.199219 C 13.699219 30.195312 13.683594 30.128906 13.78125 29.554688 C 13.84375 29.15625 13.886719 29 13.941406 29 C 13.984375 29 14 29.039062 13.980469 29.136719 Z M 13.136719 29.296875 C 13.273438 29.503906 13.28125 29.625 13.148438 29.835938 C 13.058594 29.984375 13.03125 30 12.804688 30 C 12.585938 30 12.546875 29.980469 12.40625 29.824219 C 12.199219 29.589844 12.199219 29.398438 12.40625 29.226562 C 12.535156 29.121094 12.605469 29.101562 12.796875 29.109375 C 12.988281 29.125 13.039062 29.148438 13.136719 29.296875 Z M 14.425781 29.199219 C 14.425781 29.234375 14.394531 29.273438 14.363281 29.285156 C 14.324219 29.300781 14.300781 29.265625 14.300781 29.199219 C 14.300781 29.136719 14.324219 29.101562 14.363281 29.109375 C 14.394531 29.125 14.425781 29.164062 14.425781 29.199219 Z M 19.304688 29.304688 C 19.496094 29.511719 19.496094 29.710938 19.304688 29.90625 C 19.003906 30.203125 18.449219 30.039062 18.449219 29.644531 C 18.449219 29.535156 18.5 29.441406 18.621094 29.320312 C 18.851562 29.089844 19.101562 29.085938 19.304688 29.304688 Z M 11.25 29.449219 C 11.25 29.503906 11.21875 29.550781 11.183594 29.550781 C 11.089844 29.550781 11.050781 29.5 11.085938 29.421875 C 11.125 29.316406 11.25 29.335938 11.25 29.449219 Z M 18.289062 29.46875 C 18.308594 29.554688 18.289062 29.558594 18.128906 29.535156 C 18 29.515625 17.925781 29.53125 17.824219 29.605469 C 17.664062 29.734375 17.664062 29.875 17.828125 29.980469 C 17.933594 30.050781 17.984375 30.054688 18.140625 30.011719 C 18.34375 29.945312 18.394531 29.96875 18.320312 30.085938 C 18.21875 30.238281 18.03125 30.265625 17.785156 30.148438 C 17.429688 29.984375 17.398438 29.65625 17.714844 29.453125 C 17.925781 29.320312 18.265625 29.328125 18.289062 29.46875 Z M 14.394531 29.585938 C 14.390625 29.910156 14.324219 30.214844 14.265625 30.238281 C 14.21875 30.25 14.199219 30.191406 14.199219 30.015625 C 14.199219 29.734375 14.285156 29.398438 14.351562 29.398438 C 14.378906 29.398438 14.398438 29.484375 14.394531 29.585938 Z M 14.976562 29.453125 C 15.121094 29.449219 15.21875 29.476562 15.320312 29.554688 C 15.445312 29.65625 15.453125 29.683594 15.441406 29.996094 C 15.429688 30.25 15.410156 30.324219 15.351562 30.324219 C 15.296875 30.324219 15.273438 30.261719 15.269531 30.089844 C 15.253906 29.671875 15.21875 29.601562 15.023438 29.601562 C 14.828125 29.601562 14.75 29.714844 14.75 30.015625 C 14.75 30.226562 14.683594 30.324219 14.574219 30.28125 C 14.5 30.25 14.488281 30.203125 14.523438 29.886719 C 14.558594 29.515625 14.621094 29.375 14.714844 29.433594 C 14.746094 29.453125 14.859375 29.464844 14.976562 29.453125 Z M 17.246094 29.480469 C 17.355469 29.503906 17.398438 29.539062 17.398438 29.609375 C 17.398438 29.691406 17.378906 29.699219 17.316406 29.671875 C 17.183594 29.613281 16.90625 29.613281 16.890625 29.675781 C 16.878906 29.699219 16.984375 29.761719 17.113281 29.804688 C 17.410156 29.90625 17.46875 29.960938 17.433594 30.113281 C 17.398438 30.238281 17.214844 30.351562 17.035156 30.351562 C 16.90625 30.351562 16.601562 30.175781 16.601562 30.101562 C 16.601562 30.035156 16.78125 30.035156 16.90625 30.105469 C 17.011719 30.160156 17.199219 30.125 17.199219 30.050781 C 17.199219 30.03125 17.109375 29.996094 17 29.976562 C 16.730469 29.929688 16.574219 29.800781 16.621094 29.660156 C 16.671875 29.503906 16.953125 29.425781 17.246094 29.480469 Z M 16.371094 29.554688 C 16.519531 29.625 16.550781 29.726562 16.550781 30.160156 C 16.550781 30.460938 16.535156 30.503906 16.421875 30.59375 C 16.234375 30.738281 15.871094 30.738281 15.714844 30.589844 C 15.539062 30.425781 15.570312 30.261719 15.746094 30.421875 C 15.894531 30.554688 16.273438 30.539062 16.351562 30.398438 C 16.398438 30.304688 16.394531 30.300781 16.265625 30.335938 C 15.855469 30.445312 15.601562 30.273438 15.601562 29.894531 C 15.601562 29.710938 15.625 29.644531 15.714844 29.585938 C 15.84375 29.488281 16.195312 29.476562 16.371094 29.554688 Z M 16.371094 29.554688 "/>
<path style=" stroke:none;fill-rule:nonzero;fill:rgb(0%,0%,0%);fill-opacity:1;" d="M 23.820312 27.414062 C 23.710938 27.511719 23.691406 27.558594 23.71875 27.664062 C 23.761719 27.839844 23.953125 27.890625 24.179688 27.785156 C 24.316406 27.714844 24.351562 27.675781 24.351562 27.554688 C 24.351562 27.289062 24.054688 27.214844 23.820312 27.414062 Z M 23.820312 27.414062 "/>
<path style=" stroke:none;fill-rule:nonzero;fill:rgb(0%,0%,0%);fill-opacity:1;" d="M 9.011719 28.058594 C 8.839844 28.230469 9.054688 28.621094 9.300781 28.574219 C 9.628906 28.511719 9.535156 28 9.195312 28 C 9.125 28 9.046875 28.023438 9.011719 28.058594 Z M 9.011719 28.058594 "/>
<path style=" stroke:none;fill-rule:nonzero;fill:rgb(0%,0%,0%);fill-opacity:1;" d="M 9.949219 28.59375 C 9.878906 28.730469 9.964844 28.933594 10.121094 29.003906 C 10.273438 29.074219 10.371094 29.039062 10.476562 28.878906 C 10.554688 28.765625 10.550781 28.746094 10.464844 28.628906 C 10.351562 28.464844 10.03125 28.445312 9.949219 28.59375 Z M 9.949219 28.59375 "/>
<path style=" stroke:none;fill-rule:nonzero;fill:rgb(0%,0%,0%);fill-opacity:1;" d="M 20.851562 28.875 C 20.785156 28.941406 20.746094 29.015625 20.765625 29.03125 C 20.808594 29.074219 21.25 28.886719 21.234375 28.824219 C 21.199219 28.714844 20.96875 28.746094 20.851562 28.875 Z M 20.851562 28.875 "/>
<path style=" stroke:none;fill-rule:nonzero;fill:rgb(0%,0%,0%);fill-opacity:1;" d="M 19.816406 29.140625 C 19.726562 29.199219 19.679688 29.441406 19.75 29.523438 C 19.824219 29.613281 20.15625 29.625 20.238281 29.539062 C 20.273438 29.503906 20.300781 29.421875 20.300781 29.351562 C 20.300781 29.28125 20.273438 29.195312 20.238281 29.160156 C 20.175781 29.09375 19.910156 29.078125 19.816406 29.140625 Z M 19.816406 29.140625 "/>
<path style=" stroke:none;fill-rule:nonzero;fill:rgb(0%,0%,0%);fill-opacity:1;" d="M 12.554688 29.378906 C 12.425781 29.550781 12.425781 29.554688 12.574219 29.726562 C 12.679688 29.828125 12.730469 29.855469 12.839844 29.824219 C 13 29.785156 13.050781 29.71875 13.050781 29.539062 C 13.050781 29.398438 12.894531 29.25 12.746094 29.25 C 12.695312 29.25 12.609375 29.308594 12.554688 29.378906 Z M 12.554688 29.378906 "/>
<path style=" stroke:none;fill-rule:nonzero;fill:rgb(0%,0%,0%);fill-opacity:1;" d="M 18.761719 29.476562 C 18.578125 29.699219 18.78125 29.996094 19.046875 29.894531 C 19.265625 29.808594 19.324219 29.585938 19.160156 29.433594 C 19.023438 29.316406 18.871094 29.328125 18.761719 29.476562 Z M 18.761719 29.476562 "/>
<path style=" stroke:none;fill-rule:nonzero;fill:rgb(0%,0%,0%);fill-opacity:1;" d="M 15.859375 29.679688 C 15.71875 29.78125 15.710938 30.023438 15.84375 30.101562 C 16.191406 30.28125 16.515625 29.953125 16.238281 29.699219 C 16.109375 29.578125 16.011719 29.574219 15.859375 29.679688 Z M 15.859375 29.679688 "/>
</g>
</svg>
